<svg width="446" height="331" viewBox="0 0 446 331" fill="none" xmlns="http://www.w3.org/2000/svg">
<g filter="url(#filter0_f_27_320)">
<rect x="123" y="99" width="210" height="97" fill="url(#paint0_linear_27_320)" fill-opacity="0.3"/>
</g>
<path d="M340.013 211.028H273.152C272.986 211.042 272.821 210.99 272.692 210.883C272.563 210.777 272.481 210.624 272.464 210.458V156.526C272.481 156.36 272.563 156.207 272.692 156.101C272.821 155.994 272.986 155.942 273.152 155.956H340.013C340.18 155.942 340.345 155.994 340.474 156.101C340.603 156.207 340.685 156.36 340.702 156.526V210.458C340.685 210.624 340.603 210.777 340.474 210.883C340.345 210.99 340.18 211.042 340.013 211.028Z" fill="#F0F0F0"/>
<path d="M332.746 161.923H280.42C280.237 161.924 280.062 161.996 279.933 162.125C279.804 162.254 279.731 162.429 279.731 162.612V203.157C279.731 203.339 279.804 203.514 279.933 203.644C280.062 203.773 280.237 203.845 280.42 203.845H332.746C332.928 203.845 333.103 203.773 333.232 203.644C333.361 203.514 333.434 203.339 333.434 203.157V162.612C333.434 162.429 333.361 162.254 333.232 162.125C333.103 161.996 332.928 161.924 332.746 161.923Z" fill="white"/>
<path d="M305.29 189.398C308.965 189.398 311.943 186.419 311.943 182.745C311.943 179.07 308.965 176.092 305.29 176.092C301.616 176.092 298.637 179.07 298.637 182.745C298.637 186.419 301.616 189.398 305.29 189.398Z" fill="#FFB8B8"/>
<path d="M315.024 203.845H300.273L300.755 193.001L300.87 192.88L302.525 191.131H307.793L309.745 193.022L309.903 193.175L314.06 197.16L315.024 203.845Z" fill="#FFAE00"/>
<path d="M302.81 203.845H291.65C291.622 201.397 291.607 199.932 291.607 199.932L292.253 199.538L292.256 199.537H292.257L299.369 195.219L300.862 192.794L300.87 192.88L301.309 197.992C301.309 197.992 302.034 200.336 302.81 203.845Z" fill="#2F2E41"/>
<path d="M321.566 203.845H309.745C309.924 196.707 308.96 192.794 309.456 192.794L309.745 193.022L313.229 195.773L317.821 197.458H317.824L320.989 198.619L321.545 198.823V199.084C321.546 199.711 321.549 201.427 321.566 203.845Z" fill="#2F2E41"/>
<path d="M298.996 184.826C298.996 184.826 299.561 183.833 299.43 180.517C299.298 177.201 304.348 179.076 308.568 178.76C312.788 178.444 311.894 184.297 311.894 184.297C311.894 184.297 312.199 183.949 312.851 181.124C313.502 178.299 312.023 175.484 312.023 175.484C311.587 172.516 309.238 173.467 309.238 173.467C309.535 173.543 309.793 173.726 309.962 173.981C310.131 174.237 310.199 174.546 310.152 174.849C309.194 173.17 306.845 174.122 306.845 174.122C303.713 172.156 300.538 174.745 300.538 174.745C296.753 175.603 298.973 178.613 298.973 178.613C295.167 180.536 298.996 184.826 298.996 184.826Z" fill="#2F2E41"/>
<path d="M293.14 203.845H288.555C288.591 203.28 288.592 202.714 288.558 202.149C288.284 201.058 292.137 199.583 292.253 199.539L292.256 199.537H292.257L292.992 199.932L293.14 203.845Z" fill="#2F2E41"/>
<path d="M322.394 203.845H317.577L316.976 197.909L317.651 197.416C317.651 197.416 317.712 197.43 317.821 197.458H317.824C318.924 197.708 319.988 198.098 320.989 198.619C321.202 198.738 321.39 198.896 321.545 199.084C321.639 199.198 321.687 199.344 321.676 199.491C321.652 199.713 321.933 201.347 322.394 203.845Z" fill="#2F2E41"/>
<path d="M339.796 142.215H272.935C272.768 142.229 272.603 142.178 272.474 142.071C272.345 141.965 272.263 141.812 272.246 141.646V87.6947C272.263 87.5285 272.345 87.3757 272.474 87.2692C272.603 87.1626 272.768 87.1108 272.935 87.1248H339.796C339.962 87.1108 340.128 87.1626 340.256 87.2692C340.385 87.3757 340.467 87.5285 340.484 87.6947V141.646C340.467 141.812 340.385 141.965 340.256 142.071C340.128 142.178 339.962 142.229 339.796 142.215Z" fill="#F0F0F0"/>
<path d="M332.528 93.0919H280.202C280.02 93.0922 279.845 93.1648 279.716 93.2939C279.586 93.4229 279.514 93.5979 279.514 93.7804V134.325C279.514 134.508 279.586 134.683 279.716 134.812C279.845 134.941 280.02 135.014 280.202 135.014H332.528C332.711 135.014 332.886 134.941 333.015 134.812C333.144 134.683 333.216 134.508 333.217 134.325V93.7804C333.216 93.5979 333.144 93.4229 333.015 93.2939C332.886 93.1648 332.711 93.0922 332.528 93.0919Z" fill="white"/>
<path d="M319.245 135.014C319.54 133.951 319.77 133.034 319.887 132.386C319.924 132.185 319.927 131.981 319.898 131.78C319.457 128.645 311.498 125.995 310.478 125.667L310.231 122.938L300.213 121.859L298.945 125.351L295.349 126.699C295.219 126.747 295.095 126.81 294.981 126.888C294.679 127.092 294.447 127.383 294.316 127.723C294.185 128.062 294.161 128.433 294.248 128.787L295.779 135.014H319.245L319.245 135.014Z" fill="#FFAE00"/>
<path d="M298.476 135.014H290.702C290.981 133.279 291.23 131.744 291.392 130.768C291.986 127.215 294.575 126.913 294.98 126.888C295.012 126.885 295.032 126.885 295.034 126.885H296.669L298.476 135.014Z" fill="#7B2516"/>
<path d="M319.245 135.014H321.13C321.038 133.84 320.61 132.717 319.898 131.78C319.541 131.307 319.079 130.924 318.55 130.658L318.408 130.597L316.751 135.014H319.245Z" fill="#7B2516"/>
<path d="M304.831 120.131C308.815 120.131 312.044 116.902 312.044 112.918C312.044 108.934 308.815 105.705 304.831 105.705C300.847 105.705 297.617 108.934 297.617 112.918C297.617 116.902 300.847 120.131 304.831 120.131Z" fill="#A0616A"/>
<path d="M299.989 109.404C300.736 110.287 301.999 110.537 303.165 110.638C305.89 110.789 308.624 110.565 311.289 109.975C311.455 111.575 311.004 113.301 311.946 114.618C312.388 113.024 312.645 111.384 312.712 109.731C312.782 109.022 312.69 108.307 312.441 107.639C312.308 107.304 312.084 107.013 311.794 106.8C311.505 106.586 311.161 106.458 310.802 106.43C311.339 106.023 311.969 105.754 312.635 105.647L310.344 104.496L310.932 103.892L306.786 103.638L307.987 102.875C306.179 102.627 304.349 102.569 302.529 102.704C301.678 102.704 300.844 102.936 300.116 103.374C299.431 103.864 299.035 104.837 299.461 105.556C298.928 105.643 298.427 105.865 298.005 106.2C297.583 106.535 297.253 106.973 297.047 107.471C296.786 108.263 296.723 109.107 296.863 109.929C297.02 111.248 297.326 112.545 297.777 113.794" fill="#2F2E41"/>
<path d="M93.9222 209.519V87.5237C93.965 87.1451 94.1542 86.7983 94.4494 86.5574C94.7446 86.3166 95.1223 86.2009 95.5018 86.235H248.893C249.272 86.2009 249.65 86.3166 249.945 86.5575C250.24 86.7983 250.429 87.1451 250.472 87.5237V209.519C250.429 209.898 250.24 210.244 249.945 210.485C249.65 210.726 249.272 210.842 248.893 210.808H95.5018C95.1223 210.842 94.7446 210.726 94.4494 210.485C94.1542 210.244 93.965 209.898 93.9222 209.519Z" fill="#E4E4E4"/>
<path d="M110.595 101.504V194.522C110.596 194.94 110.762 195.342 111.058 195.638C111.355 195.934 111.756 196.101 112.175 196.101H232.22C232.638 196.101 233.04 195.934 233.336 195.638C233.632 195.342 233.799 194.94 233.799 194.522V101.504C233.799 101.086 233.632 100.684 233.336 100.388C233.04 100.092 232.638 99.9254 232.22 99.9248H112.175C111.756 99.9254 111.355 100.092 111.058 100.388C110.762 100.684 110.596 101.086 110.595 101.504Z" fill="white"/>
<path d="M160.386 196.101H184.546L183.04 173.503L174.324 175.514L165.847 172.254L165.623 172.169L165.609 172.162C165.606 172.169 165.603 172.176 165.602 172.183C165.468 172.72 162.808 183.374 160.386 196.101Z" fill="#FFAE00"/>
<path d="M145.826 177.192L148.083 196.101H168.445L165.847 172.254L165.823 172.022L165.623 172.169L165.602 172.183L160.578 175.848L145.826 177.192Z" fill="#2F2E41"/>
<path d="M180.972 196.101H199.207L199.47 181.215L186.051 176.764L183.04 173.503C183.04 173.503 182.088 183.314 180.972 196.101Z" fill="#2F2E41"/>
<path d="M137.047 196.101H152.158L151.189 182.556L145.826 177.192C145.826 177.192 141.582 186.094 137.047 196.101Z" fill="#2F2E41"/>
<path d="M194.907 196.101H202.879C202.844 191.763 202.823 188.765 202.823 187.919C202.863 186.611 202.577 185.314 201.992 184.144C201.407 182.974 200.541 181.967 199.47 181.215L195.444 182.556L194.907 196.101Z" fill="#2F2E41"/>
<path d="M196.151 166.392H153.911V148.589C153.911 142.488 158.21 135.153 163.493 132.237C170.909 128.146 179.016 128.074 185.736 132.041C188.899 133.914 191.521 136.576 193.347 139.766C195.172 142.956 196.139 146.566 196.151 150.242V166.392Z" fill="#2F2E41"/>
<path d="M189.255 158.015C193.296 150.621 190.579 141.351 183.186 137.31C175.792 133.268 166.522 135.985 162.481 143.379C158.439 150.772 161.156 160.042 168.55 164.084C175.943 168.125 185.213 165.408 189.255 158.015Z" fill="#FFB8B8"/>
<path d="M190.369 151.484H168.603L168.552 151.237C168.3 149.94 167.974 148.657 167.577 147.397C166.713 148.663 165.915 149.974 165.189 151.324L165.1 151.484H160.869C160.609 151.484 160.352 151.429 160.115 151.324C159.877 151.219 159.665 151.066 159.49 150.874C159.375 150.747 159.105 150.451 160.22 136.846C160.25 136.522 160.365 136.211 160.551 135.945C160.738 135.678 160.991 135.465 161.285 135.325C170.835 130.867 180.513 130.985 190.052 135.678H190.222L190.282 135.914C192.164 150.395 191.893 150.708 191.778 150.841C191.603 151.043 191.386 151.205 191.143 151.316C190.9 151.427 190.636 151.484 190.369 151.484Z" fill="#2F2E41"/>
<defs>
<filter id="filter0_f_27_320" x="83" y="59" width="290" height="177" filterUnits="userSpaceOnUse" color-interpolation-filters="sRGB">
<feFlood flood-opacity="0" result="BackgroundImageFix"/>
<feBlend mode="normal" in="SourceGraphic" in2="BackgroundImageFix" result="shape"/>
<feGaussianBlur stdDeviation="20" result="effect1_foregroundBlur_27_320"/>
</filter>
<linearGradient id="paint0_linear_27_320" x1="228" y1="99" x2="228" y2="196" gradientUnits="userSpaceOnUse">
<stop offset="0.0343749" stop-color="#CB356B" stop-opacity="0.1"/>
<stop offset="0.622917" stop-color="#CB356B"/>
<stop offset="1" stop-color="#CB356B" stop-opacity="0.1"/>
</linearGradient>
</defs>
</svg>
