<svg width="247" height="161" viewBox="0 0 247 161" fill="none" xmlns="http://www.w3.org/2000/svg">
<g clip-path="url(#clip0_26_140)">
<g filter="url(#filter0_f_26_140)">
<rect x="54" y="16" width="96" height="129.302" fill="url(#paint0_linear_26_140)" fill-opacity="0.3"/>
</g>
<path d="M7.82815 123.422C9.05223 110.927 16.4506 98.4553 28.2224 94.0928C23.8725 107.034 24.2401 121.096 29.2603 133.792C31.2141 138.681 33.8963 143.916 32.3093 148.936C31.3219 152.06 28.7706 154.497 25.8883 156.054C23.0059 157.611 19.7825 158.401 16.5994 159.177L15.9829 159.714C10.6019 148.372 6.60406 135.916 7.82815 123.422Z" fill="#F0F0F0"/>
<path d="M28.3465 94.3252C21.7 102.17 17.5167 112.189 16.7853 122.461C16.6272 124.681 16.66 126.948 17.2011 129.118C17.7448 131.23 18.8441 133.158 20.3847 134.701C21.7923 136.169 23.4021 137.507 24.4284 139.292C25.5102 141.172 25.6063 143.339 24.9526 145.384C24.1528 147.886 22.5018 149.951 20.817 151.914C18.9463 154.095 16.9688 156.33 16.2236 159.175C16.1333 159.519 15.6037 159.359 15.6939 159.015C16.9903 154.065 21.6867 151.15 23.8457 146.666C24.8531 144.573 25.2361 142.165 24.1843 140.011C23.2646 138.128 21.6058 136.746 20.1677 135.272C18.6577 133.725 17.4863 132.014 16.8514 129.93C16.202 127.797 16.0805 125.527 16.1812 123.312C16.4469 118.292 17.5004 113.344 19.3032 108.65C21.3309 103.282 24.262 98.2998 27.9697 93.9199C28.1993 93.6489 28.5746 94.056 28.3465 94.3252L28.3465 94.3252Z" fill="white"/>
<path d="M16.8468 119.11C15.1268 118.739 13.5945 117.769 12.5235 116.373C11.4525 114.978 10.9125 113.246 11 111.489C11.0043 111.418 11.0361 111.35 11.0889 111.302C11.1417 111.253 11.2113 111.227 11.2831 111.229C11.3548 111.23 11.4231 111.26 11.4735 111.311C11.5239 111.362 11.5525 111.431 11.5533 111.502C11.4688 113.139 11.9719 114.751 12.9719 116.049C13.9719 117.347 15.4029 118.244 17.0066 118.58C17.355 118.653 17.1932 119.182 16.8468 119.11Z" fill="white"/>
<path d="M19.573 134.051C22.612 132.127 24.8142 129.129 25.7406 125.653C25.8321 125.309 26.3617 125.469 26.2703 125.813C25.2996 129.428 23.0015 132.543 19.8347 134.538C19.5327 134.728 19.2727 134.24 19.573 134.051Z" fill="white"/>
<path d="M21.8577 103.792C22.4934 104.074 23.1891 104.194 23.8824 104.141C24.5758 104.087 25.245 103.862 25.83 103.487C26.1294 103.293 26.3891 103.782 26.0917 103.974C25.4434 104.386 24.704 104.634 23.9381 104.694C23.1722 104.755 22.4031 104.627 21.698 104.322C21.6291 104.299 21.5717 104.25 21.5373 104.186C21.5029 104.122 21.4942 104.047 21.513 103.977C21.5345 103.907 21.5827 103.848 21.6473 103.814C21.7118 103.779 21.7875 103.771 21.8577 103.792H21.8577Z" fill="white"/>
<path d="M65.0064 115.393C64.8229 115.52 64.6394 115.646 64.4558 115.777C61.9972 117.487 59.6817 119.394 57.532 121.479C57.3633 121.637 57.1946 121.801 57.0308 121.964C51.9053 127.042 47.7672 133.028 44.8269 139.618C43.6593 142.241 42.6929 144.949 41.9362 147.719C40.8913 151.544 40.0628 155.774 37.8795 158.938C37.6555 159.27 37.411 159.589 37.1476 159.891L16.6865 160.425C16.6394 160.402 16.5922 160.385 16.5449 160.363L15.7289 160.421C15.7579 160.276 15.7912 160.125 15.8202 159.98C15.8367 159.895 15.8578 159.811 15.8743 159.726C15.8867 159.67 15.8994 159.613 15.9074 159.562C15.9115 159.543 15.9158 159.524 15.92 159.51C15.928 159.459 15.9409 159.412 15.949 159.365C16.1326 158.524 16.3224 157.683 16.5185 156.841C16.5184 156.837 16.5184 156.837 16.5228 156.832C18.033 150.425 20.0913 144.088 23.0459 138.266C23.1349 138.09 23.2235 137.911 23.3218 137.735C24.6681 135.118 26.2262 132.615 27.9803 130.252C28.945 128.96 29.9744 127.719 31.0646 126.532C33.8875 123.471 37.1743 120.872 40.8046 118.832C48.0422 114.766 56.4996 113.06 64.4041 115.222C64.6063 115.278 64.8041 115.333 65.0064 115.393Z" fill="#F0F0F0"/>
<path d="M64.9673 115.654C54.9372 117.916 45.5648 123.397 38.7968 131.158C37.3335 132.836 35.9952 134.665 35.1204 136.724C34.2831 138.738 34.0002 140.939 34.3012 143.098C34.5414 145.118 35.0209 147.156 34.766 149.198C34.4974 151.351 33.2698 153.139 31.5167 154.378C29.3718 155.894 26.81 156.549 24.2826 157.103C21.4764 157.717 18.5518 158.311 16.2439 160.134C15.9643 160.355 15.6379 159.908 15.9171 159.688C19.9325 156.516 25.4373 157.016 29.861 154.735C31.9252 153.671 33.6811 151.979 34.138 149.626C34.5375 147.568 34.0448 145.467 33.784 143.424C33.5101 141.279 33.6047 139.208 34.3528 137.162C35.118 135.068 36.3876 133.182 37.8016 131.475C41.0367 127.626 44.8569 124.309 49.1222 121.647C53.9733 118.582 59.3131 116.369 64.9104 115.104C65.2569 115.026 65.3115 115.577 64.9673 115.654H64.9673Z" fill="white"/>
<path d="M40.8635 128.52C39.7132 127.188 39.0736 125.491 39.0589 123.732C39.0441 121.973 39.6553 120.265 40.7832 118.915C41.0123 118.643 41.4464 118.986 41.217 119.259C40.1644 120.514 39.5953 122.105 39.6123 123.743C39.6294 125.381 40.2315 126.959 41.31 128.193C41.5441 128.461 41.0963 128.786 40.8635 128.52Z" fill="white"/>
<path d="M34.0444 142.091C37.6291 142.384 41.1927 141.316 44.0247 139.099C44.3051 138.879 44.6316 139.326 44.3515 139.545C41.4001 141.847 37.6894 142.951 33.9598 142.637C33.6044 142.607 33.6909 142.061 34.0444 142.091H34.0444Z" fill="white"/>
<path d="M54.0865 119.306C54.4242 119.914 54.9077 120.429 55.4934 120.804C56.0791 121.178 56.7487 121.402 57.4422 121.454C57.7978 121.48 57.7109 122.026 57.3575 122.001C56.5917 121.94 55.8524 121.692 55.2044 121.279C54.5564 120.866 54.0193 120.301 53.64 119.633C53.599 119.573 53.5823 119.5 53.5935 119.428C53.6046 119.356 53.6426 119.291 53.6998 119.247C53.7592 119.204 53.8331 119.186 53.9055 119.197C53.9779 119.208 54.0429 119.247 54.0865 119.306Z" fill="white"/>
<path d="M185.095 11.4625C184.789 10.5604 180.958 7.49408 183.306 6.97869L185.231 9.54564L194.082 0.694885L194.972 1.58507L185.095 11.4625Z" fill="#7B2516"/>
<path d="M185.095 41.5588C184.789 40.6567 180.958 37.5904 183.306 37.075L185.231 39.642L194.082 30.7912L194.972 31.6814L185.095 41.5588Z" fill="#7B2516"/>
<path d="M185.095 72.085C184.789 71.1829 180.958 68.1166 183.306 67.6012L185.231 70.1681L194.082 61.3174L194.972 62.2076L185.095 72.085Z" fill="#7B2516"/>
<path d="M176.945 47.4053C178.453 47.4053 179.676 46.1825 179.676 44.6741C179.676 43.1657 178.453 41.9429 176.945 41.9429C175.436 41.9429 174.213 43.1657 174.213 44.6741C174.213 46.1825 175.436 47.4053 176.945 47.4053Z" fill="#3F3D56"/>
<path d="M176.945 17.6351C178.453 17.6351 179.676 16.4123 179.676 14.9039C179.676 13.3955 178.453 12.1727 176.945 12.1727C175.436 12.1727 174.213 13.3955 174.213 14.9039C174.213 16.4123 175.436 17.6351 176.945 17.6351Z" fill="#3F3D56"/>
<path d="M247 8.62213H203.028V9.16837H247V8.62213Z" fill="#3F3D56"/>
<path d="M178.31 79.1403C179.819 79.1403 181.041 77.9175 181.041 76.4091C181.041 74.9007 179.819 73.6779 178.31 73.6779C176.802 73.6779 175.579 74.9007 175.579 76.4091C175.579 77.9175 176.802 79.1403 178.31 79.1403Z" fill="#3F3D56"/>
<path d="M247 38.7183H203.028V39.2646H247V38.7183Z" fill="#3F3D56"/>
<path d="M247 69.2446H203.028V69.7908H247V69.2446Z" fill="#3F3D56"/>
<path d="M191.993 76.1545H178.337V62.2253H187.623V62.7716H178.883V75.6083H191.447V69.3265H191.993V76.1545Z" fill="#3F3D56"/>
<path d="M191.993 45.5649H178.337V31.6357H187.623V32.182H178.883V45.0187H191.447V38.7369H191.993V45.5649Z" fill="#3F3D56"/>
<path d="M191.993 14.4292H178.337V0.5H187.623V1.04624H178.883V13.8829H191.447V7.60114H191.993V14.4292Z" fill="#3F3D56"/>
<path d="M102.831 50.1456C102.831 50.1456 99.1815 65.5554 103.642 65.5554C108.103 65.5554 118.647 48.118 118.647 48.118L114.997 43.6573L108.446 52.7522L108.103 48.118L102.831 50.1456Z" fill="#A0616A"/>
<path d="M117.674 48.7879C119.635 48.7879 121.225 47.1983 121.225 45.2373C121.225 43.2764 119.635 41.6868 117.674 41.6868C115.713 41.6868 114.124 43.2764 114.124 45.2373C114.124 47.1983 115.713 48.7879 117.674 48.7879Z" fill="#A0616A"/>
<path d="M99.7369 155.099L104.463 155.099L106.711 136.87L99.7358 136.87L99.7369 155.099Z" fill="#A0616A"/>
<path d="M99.5703 160.03L114.104 160.029V159.845C114.104 158.345 113.508 156.906 112.447 155.846C111.386 154.785 109.947 154.189 108.447 154.189H108.447L105.792 152.175L100.839 154.189L99.5701 154.189L99.5703 160.03Z" fill="#2F2E41"/>
<path d="M48.899 149.203L53.1278 151.313L63.2802 136.006L57.0389 132.891L48.899 149.203Z" fill="#A0616A"/>
<path d="M46.5483 153.54L59.5525 160.03L59.6346 159.865C60.3044 158.523 60.4137 156.969 59.9382 155.547C59.4627 154.124 58.4415 152.948 57.0992 152.278L57.0989 152.278L55.623 149.29L50.2916 148.88L49.1564 148.314L46.5483 153.54Z" fill="#2F2E41"/>
<path d="M155.638 160.048H0V160.66H155.638V160.048Z" fill="#CCCCCC"/>
<path d="M69.181 78.1013C69.181 78.1013 67.2923 100.811 66.8868 105.677C66.6087 108.728 65.9269 111.728 64.8592 114.599C64.8592 114.599 64.0482 116.221 64.0482 117.843L54.8563 134.548C54.8563 134.548 52.0475 136.612 52.453 138.235C52.8585 139.857 50.7595 140.83 50.7595 140.83L60.4394 142.695C60.4394 142.695 60.0338 141.479 61.2504 141.073C62.467 140.668 63.4354 137.15 63.4354 137.15L77.0248 115.004L86.7573 94.728C86.7573 94.728 92.4346 112.977 93.6512 115.004C93.6512 115.004 98.1119 137.713 98.923 139.741C99.734 141.769 100.14 141.769 99.734 142.58C99.3285 143.391 99.3285 144.202 99.734 144.607C100.14 145.013 107.844 144.607 107.844 144.607L105.817 115.815L102.167 81.3458L83.5132 75.6685L69.181 78.1013Z" fill="#2F2E41"/>
<path d="M87.4443 23.8878C92.1475 23.8878 95.9602 20.0751 95.9602 15.3718C95.9602 10.6686 92.1475 6.8559 87.4443 6.8559C82.7411 6.8559 78.9283 10.6686 78.9283 15.3718C78.9283 20.0751 82.7411 23.8878 87.4443 23.8878Z" fill="#A0616A"/>
<path d="M102.978 36.3329L92.8405 30.1908C92.8405 30.1908 92.5595 26.3768 89.6711 26.1973C88.2209 26.1072 86.0447 25.9694 82.779 25.7589C82.0888 25.7144 81.6231 29.4903 80.8321 29.4391L70.131 32.2777L71.7531 59.8532C71.7531 59.8532 69.32 70.8023 70.131 72.8299C70.9421 74.8575 68.1034 75.6685 68.9145 76.074C69.7255 76.4796 68.9145 79.3182 68.9145 79.3182C68.9145 79.3182 84.7298 87.4286 102.167 81.3458L100.545 76.074C100.766 75.3849 100.807 74.6508 100.665 73.9413C100.523 73.2317 100.203 72.57 99.7341 72.0188C99.7341 72.0188 101.356 69.5857 99.3285 67.5581C99.3285 67.5581 100.14 63.9084 98.112 62.2863L97.7064 56.609L98.923 53.7703L102.978 36.3329Z" fill="#E6E6E6"/>
<path d="M80.0546 20.2368L79.8166 19.6839C79.7859 19.6124 76.7742 12.4929 79.4437 8.10133C80.6794 6.06826 82.9264 4.92043 86.122 4.68999C91.122 4.32845 94.5442 5.51454 96.296 8.21282C96.5897 8.67012 96.7548 9.19812 96.7739 9.7413C96.793 10.2845 96.6654 10.8228 96.4045 11.2996C96.1437 11.7764 95.7591 12.1741 95.2914 12.4509C94.8236 12.7277 94.2899 12.8733 93.7464 12.8725H93.6792L92.7605 11.6796L92.707 11.7957C92.3744 12.5153 91.6105 12.9092 90.7158 12.8229C90.5636 12.812 90.4288 12.9434 90.3205 13.2245C90.2841 13.3475 90.2152 13.4583 90.1212 13.5455C90.0271 13.6327 89.9113 13.6929 89.7859 13.7199C89.1248 13.8486 88.1825 13.0159 87.7607 12.6009C87.7444 12.6964 87.7078 12.7873 87.6534 12.8675C87.599 12.9476 87.528 13.0152 87.4452 13.0655C87.0007 13.322 86.3089 12.987 86.1104 12.8803C84.5286 13.2164 83.5047 13.1265 83.066 12.6134C82.7686 14.7174 82.1304 18.5046 81.365 18.7145C81.285 18.7329 81.2013 18.7251 81.126 18.6922C81.0508 18.6593 80.9882 18.6031 80.9474 18.5319C80.7631 18.2927 80.5984 18.1735 80.4955 18.2069C80.2466 18.2861 80.0996 19.1061 80.0785 19.6352L80.0546 20.2368Z" fill="#2F2E41"/>
<path d="M98.5174 36.7385L102.563 36.0812C105.477 38.8811 107.462 42.5075 108.25 46.471C109.466 52.9593 109.872 54.1759 109.872 54.1759L100.139 56.609L94.8677 46.471L98.5174 36.7385Z" fill="#E6E6E6"/>
<path d="M80.5672 45.1778L78.0673 76.8691L141.864 81.9017L144.364 50.2103L80.5672 45.1778Z" fill="white"/>
<path d="M87.3831 47.6331C85.8218 46.5182 83.8396 46.4376 83.0824 46.4536C83.3134 47.1747 84.0313 49.0241 85.5925 50.1395C87.1576 51.2572 89.1373 51.3354 89.8934 51.3198C89.6625 50.599 88.9445 48.7488 87.3831 47.6331Z" fill="#7B2516"/>
<path d="M93.5421 67.799L83.2982 66.9909C82.9955 66.967 82.6911 67.003 82.4023 67.0968C82.1135 67.1906 81.846 67.3403 81.6151 67.5374C81.3842 67.7346 81.1944 67.9753 81.0565 68.2458C80.9186 68.5163 80.8354 68.8113 80.8115 69.114C80.7876 69.4167 80.8236 69.7211 80.9174 70.0099C81.0111 70.2987 81.1609 70.5661 81.358 70.7971C81.5552 71.028 81.7959 71.2178 82.0664 71.3557C82.3369 71.4936 82.6319 71.5768 82.9346 71.6007L93.1785 72.4088C93.7898 72.457 94.3952 72.2604 94.8616 71.8623C95.3279 71.4641 95.617 70.897 95.6652 70.2857C95.7134 69.6744 95.5168 69.069 95.1187 68.6027C94.7205 68.1363 94.1534 67.8472 93.5421 67.799Z" fill="#7B2516"/>
<path d="M141.849 47.1299L84.4145 42.5988C83.7464 42.5462 83.0746 42.6257 82.4372 42.8328C81.7999 43.0398 81.2096 43.3704 80.7001 43.8055C80.1905 44.2407 79.7717 44.772 79.4674 45.3691C79.1632 45.9662 78.9796 46.6173 78.927 47.2853L76.7181 75.2668C76.612 76.6163 77.0461 77.9528 77.925 78.9823C78.804 80.0118 80.0558 80.6501 81.4053 80.7569L138.84 85.288C139.508 85.3406 140.18 85.2611 140.817 85.0541C141.454 84.847 142.045 84.5164 142.554 84.0813C143.064 83.6461 143.483 83.1148 143.787 82.5177C144.091 81.9207 144.275 81.2695 144.327 80.6015L146.426 54.0062L146.469 53.4629L146.536 52.6174C146.588 51.9493 146.509 51.2775 146.302 50.6402C146.095 50.0028 145.764 49.4126 145.329 48.903C144.894 48.3934 144.362 47.9746 143.765 47.6704C143.168 47.3661 142.517 47.1825 141.849 47.1299ZM140.153 71.4753L139.789 76.0852C139.723 76.8994 139.336 77.6541 138.715 78.1844C138.094 78.7147 137.288 78.9773 136.473 78.915L128.789 78.3095C127.975 78.243 127.22 77.8568 126.69 77.2354C126.16 76.614 125.897 75.8079 125.959 74.9934L126.323 70.3835C126.39 69.5694 126.776 68.8148 127.398 68.2846C128.019 67.7544 128.825 67.4917 129.639 67.5537L137.321 68.1599C138.135 68.2267 138.89 68.6127 139.42 69.2338C139.951 69.8549 140.214 70.6607 140.153 71.4753ZM80.3031 69.0715C80.3627 68.3256 80.7158 67.6337 81.2849 67.1478C81.8539 66.6618 82.5925 66.4214 83.3386 66.4794L93.5822 67.288C93.9522 67.3165 94.313 67.4177 94.6439 67.5858C94.9748 67.7539 95.2694 67.9855 95.5107 68.2675C95.752 68.5494 95.9355 68.8762 96.0505 69.229C96.1655 69.5819 96.2098 69.954 96.1809 70.324C96.1521 70.694 96.0506 71.0547 95.8822 71.3855C95.7139 71.7162 95.482 72.0106 95.1999 72.2517C94.9177 72.4928 94.5908 72.676 94.2379 72.7907C93.8849 72.9054 93.5128 72.9494 93.1428 72.9203L93.1375 72.9216L82.894 72.113C82.524 72.0838 82.1634 71.9819 81.8329 71.8131C81.5024 71.6444 81.2084 71.4121 80.9677 71.1296C80.7271 70.8471 80.5445 70.5199 80.4305 70.1668C80.3164 69.8136 80.2731 69.4414 80.3031 69.0715ZM82.496 46.2709L82.426 45.9844L82.7207 45.9574C82.8359 45.945 85.5608 45.7004 87.6819 47.2155C89.803 48.7307 90.4535 51.389 90.4817 51.5002L90.5491 51.7874L90.2551 51.8171C89.8378 51.8481 89.4186 51.8453 89.0018 51.8088C87.6757 51.7312 86.3948 51.2986 85.2932 50.5563C83.1721 49.0411 82.5217 46.3828 82.496 46.2709Z" fill="#FFAE00"/>
<path d="M131.536 74.5326L128.207 74.27C127.969 74.2517 127.734 74.3284 127.553 74.4832C127.372 74.638 127.26 74.8583 127.241 75.0958C127.222 75.3332 127.299 75.5684 127.453 75.7497C127.608 75.9309 127.828 76.0435 128.065 76.0627L131.394 76.3253C131.632 76.3436 131.867 76.267 132.048 76.1121C132.229 75.9573 132.341 75.737 132.36 75.4995C132.379 75.2621 132.302 75.0269 132.148 74.8456C131.993 74.6643 131.773 74.5518 131.536 74.5326Z" fill="#7B2516"/>
<path d="M137.682 75.0174L134.353 74.7548C134.116 74.7367 133.881 74.8134 133.7 74.9682C133.519 75.123 133.407 75.3433 133.388 75.5806C133.369 75.818 133.446 76.0531 133.6 76.2343C133.754 76.4156 133.974 76.5282 134.212 76.5475L137.541 76.8101C137.778 76.8283 138.013 76.7515 138.194 76.5967C138.375 76.4419 138.487 76.2217 138.506 75.9843C138.524 75.747 138.448 75.5119 138.294 75.3306C138.14 75.1494 137.92 75.0368 137.682 75.0174Z" fill="#7B2516"/>
<path d="M131.718 72.2277L128.389 71.9651C128.151 71.9469 127.916 72.0237 127.735 72.1785C127.555 72.3333 127.442 72.5535 127.424 72.7909C127.405 73.0282 127.481 73.2633 127.636 73.4446C127.79 73.6258 128.01 73.7385 128.247 73.7578L131.576 74.0204C131.814 74.0387 132.049 73.962 132.23 73.8072C132.411 73.6524 132.523 73.4321 132.542 73.1946C132.561 72.9572 132.484 72.722 132.33 72.5407C132.175 72.3594 131.955 72.2468 131.718 72.2277Z" fill="#7B2516"/>
<path d="M137.864 72.7126L134.535 72.4499C134.297 72.4316 134.062 72.5083 133.881 72.6631C133.7 72.8179 133.588 73.0382 133.569 73.2757C133.551 73.5131 133.627 73.7483 133.781 73.9296C133.936 74.1109 134.156 74.2235 134.393 74.2426L137.723 74.5052C137.96 74.5236 138.195 74.4469 138.376 74.2921C138.557 74.1373 138.67 73.9169 138.688 73.6795C138.707 73.442 138.631 73.2068 138.476 73.0255C138.322 72.8443 138.102 72.7317 137.864 72.7126Z" fill="#7B2516"/>
<path d="M131.899 69.9228L128.57 69.6601C128.333 69.6418 128.098 69.7185 127.917 69.8733C127.736 70.0281 127.623 70.2484 127.605 70.4859C127.586 70.7234 127.662 70.9585 127.817 71.1398C127.971 71.3211 128.191 71.4337 128.429 71.4528L131.758 71.7155C131.995 71.7336 132.23 71.6568 132.411 71.502C132.592 71.3472 132.704 71.127 132.723 70.8896C132.742 70.6523 132.665 70.4172 132.511 70.236C132.357 70.0547 132.137 69.9421 131.899 69.9228Z" fill="#7B2516"/>
<path d="M138.046 70.4076L134.717 70.145C134.479 70.1269 134.244 70.2036 134.063 70.3584C133.883 70.5132 133.77 70.7335 133.752 70.9708C133.733 71.2082 133.809 71.4432 133.964 71.6245C134.118 71.8058 134.338 71.9184 134.575 71.9377L137.904 72.2003C138.142 72.2185 138.377 72.1417 138.558 71.9869C138.738 71.8321 138.851 71.6119 138.869 71.3745C138.888 71.1372 138.812 70.9021 138.657 70.7208C138.503 70.5396 138.283 70.4269 138.046 70.4076Z" fill="#7B2516"/>
<path d="M78.0732 56.1142L78.0304 56.659L145.451 61.9552L145.494 61.4104L78.0732 56.1142Z" fill="white"/>
<path d="M146.469 53.4628L146.426 54.0063L144.08 53.8223L119.08 51.8585L119.126 51.3145L144.122 53.2787L146.469 53.4628Z" fill="#3F3D56"/>
<path d="M64.0482 47.6876C64.0482 47.6876 60.3985 63.0974 64.8592 63.0974C69.3199 63.0974 79.8635 45.6599 79.8635 45.6599L76.2138 41.1992L69.663 50.2941L69.3199 45.66L64.0482 47.6876Z" fill="#A0616A"/>
<path d="M78.8909 46.3298C80.8518 46.3298 82.4415 44.7402 82.4415 42.7793C82.4415 40.8183 80.8518 39.2287 78.8909 39.2287C76.93 39.2287 75.3403 40.8183 75.3403 42.7793C75.3403 44.7402 76.93 46.3298 78.8909 46.3298Z" fill="#A0616A"/>
<path d="M73.0851 34.7109L70.6519 32.2778C70.6519 32.2778 65.7857 35.1164 65.3801 37.9551C64.9746 40.7937 62.947 49.7152 62.947 49.7152L70.4492 50.3235L72.8823 46.6738L73.0851 34.7109Z" fill="#E6E6E6"/>
</g>
<defs>
<filter id="filter0_f_26_140" x="14" y="-24" width="176" height="209.302" filterUnits="userSpaceOnUse" color-interpolation-filters="sRGB">
<feFlood flood-opacity="0" result="BackgroundImageFix"/>
<feBlend mode="normal" in="SourceGraphic" in2="BackgroundImageFix" result="shape"/>
<feGaussianBlur stdDeviation="20" result="effect1_foregroundBlur_26_140"/>
</filter>
<linearGradient id="paint0_linear_26_140" x1="102" y1="16" x2="102" y2="145.302" gradientUnits="userSpaceOnUse">
<stop offset="0.0343749" stop-color="#CB356B" stop-opacity="0.1"/>
<stop offset="0.622917" stop-color="#CB356B"/>
<stop offset="1" stop-color="#CB356B" stop-opacity="0.1"/>
</linearGradient>
<clipPath id="clip0_26_140">
<rect width="247" height="160.16" fill="white" transform="translate(0 0.5)"/>
</clipPath>
</defs>
</svg>
