<svg width="325" height="176" viewBox="0 0 325 176" fill="none" xmlns="http://www.w3.org/2000/svg">
<g clip-path="url(#clip0_26_19)">
<path d="M138.359 112.44H6.6947C4.91977 112.438 3.2181 111.577 1.96303 110.046C0.707965 108.515 0.00199224 106.439 0 104.274V6.21844C0.00149605 4.5698 0.539087 2.98921 1.49483 1.82343C2.45057 0.65765 3.74642 0.00188211 5.09807 0H139.88C141.252 0.00188444 142.567 0.66737 143.537 1.85045C144.507 3.03352 145.052 4.63757 145.054 6.31068V104.274C145.052 106.439 144.346 108.515 143.091 110.046C141.836 111.577 140.134 112.438 138.359 112.44Z" fill="white"/>
<path d="M138.359 112.44H6.6947C4.91977 112.438 3.2181 111.577 1.96303 110.046C0.707965 108.515 0.00199224 106.439 0 104.274V6.21844C0.00149605 4.5698 0.539087 2.98921 1.49483 1.82343C2.45057 0.65765 3.74642 0.00188211 5.09807 0H139.88C141.252 0.00188444 142.567 0.66737 143.537 1.85045C144.507 3.03352 145.052 4.63757 145.054 6.31068V104.274C145.052 106.439 144.346 108.515 143.091 110.046C141.836 111.577 140.134 112.438 138.359 112.44ZM5.09807 1.76555C4.13019 1.76693 3.20229 2.23653 2.51792 3.07132C1.83354 3.9061 1.44859 5.0379 1.4475 6.21844V104.274C1.44909 105.971 2.00242 107.598 2.98612 108.798C3.96982 109.998 5.30354 110.673 6.6947 110.675H138.359C139.75 110.673 141.084 109.998 142.068 108.798C143.051 107.598 143.605 105.971 143.606 104.274V6.31068C143.605 5.10566 143.212 3.95037 142.514 3.09828C141.815 2.24619 140.868 1.7669 139.88 1.76555H5.09807Z" fill="#E6E6E6"/>
<path d="M60.1117 87.6137H20.66C19.6948 87.612 18.7629 87.1832 18.0371 86.407C17.3114 85.6307 16.8412 84.5597 16.7138 83.3927C16.6898 83.1826 16.6783 82.9706 16.6794 82.7585V29.6816C16.6806 28.3943 17.1004 27.1602 17.8466 26.25C18.5929 25.3398 19.6047 24.8277 20.66 24.8263H60.1117C61.1671 24.8277 62.1789 25.3398 62.9251 26.25C63.6714 27.1602 64.0912 28.3943 64.0924 29.6816V82.7585C64.0912 84.0457 63.6714 85.2798 62.9251 86.19C62.1789 87.1003 61.1671 87.6123 60.1117 87.6137ZM20.66 27.4746C20.1803 27.4753 19.7204 27.708 19.3812 28.1218C19.042 28.5355 18.8512 29.0964 18.8506 29.6816V82.7585C18.8499 82.8492 18.8545 82.9399 18.8644 83.0298C18.9198 83.5634 19.1326 84.0542 19.4631 84.4104C19.7935 84.7667 20.219 84.9639 20.66 84.9654H60.1117C60.5914 84.9647 61.0513 84.732 61.3905 84.3183C61.7298 83.9045 61.9206 83.3436 61.9211 82.7585V29.6816C61.9206 29.0964 61.7298 28.5355 61.3905 28.1218C61.0513 27.708 60.5914 27.4753 60.1117 27.4746H20.66Z" fill="#E6E6E6"/>
<path d="M125.479 70.3554H77.7117C76.9439 70.3554 76.2075 69.9834 75.6646 69.3212C75.1217 68.659 74.8167 67.7608 74.8167 66.8243C74.8167 65.8878 75.1217 64.9897 75.6646 64.3274C76.2075 63.6652 76.9439 63.2932 77.7117 63.2932H125.479C126.247 63.2932 126.983 63.6652 127.526 64.3274C128.069 64.9897 128.374 65.8878 128.374 66.8243C128.374 67.7608 128.069 68.659 127.526 69.3212C126.983 69.9834 126.247 70.3554 125.479 70.3554Z" fill="#E6E6E6"/>
<path d="M103.767 55.3482H77.7117C76.9439 55.3482 76.2075 54.9762 75.6646 54.314C75.1217 53.6518 74.8167 52.7537 74.8167 51.8171C74.8167 50.8806 75.1217 49.9825 75.6646 49.3203C76.2075 48.6581 76.9439 48.286 77.7117 48.286H103.767C104.535 48.286 105.271 48.6581 105.814 49.3203C106.357 49.9825 106.662 50.8806 106.662 51.8171C106.662 52.7537 106.357 53.6518 105.814 54.314C105.271 54.9762 104.535 55.3482 103.767 55.3482Z" fill="#E6E6E6"/>
<path d="M53.394 54.7613C53.394 62.5619 47.4804 61.3821 40.1855 61.3821C32.8907 61.3821 26.9771 62.5619 26.9771 54.7613C26.9771 46.9606 29.8657 33.1332 40.1855 33.1332C50.8608 33.1332 53.394 46.9606 53.394 54.7613Z" fill="#2F2E41"/>
<path d="M53.9282 67.8898C53.6735 66.9929 53.1655 66.2357 52.4952 65.7535C52.3658 65.6566 52.2303 65.5724 52.0899 65.5019C51.502 65.2037 50.8556 65.1209 50.2298 65.2636C49.604 65.4063 49.0258 65.7683 48.5659 66.3054C48.106 66.8424 47.7844 67.5312 47.6403 68.2877C47.4962 69.0441 47.5359 69.8353 47.7546 70.5646L53.0163 85.1525H59.9462L53.9282 67.8898Z" fill="#3F3D56"/>
<path d="M30.9671 68.6843C30.5513 68.4392 30.0976 68.3041 29.6359 68.2878C29.1742 68.2716 28.7148 68.3746 28.2881 68.5901C27.8613 68.8055 27.4767 69.1286 27.1595 69.5381C26.8422 69.9476 26.5996 70.4343 26.4474 70.9663L21.5476 85.0245C21.7985 85.1099 22.0579 85.153 22.3184 85.1525H28.4667L32.6209 73.6411C32.898 72.7118 32.8822 71.6901 32.5766 70.7742C32.2711 69.8583 31.6975 69.1135 30.9671 68.6843Z" fill="#3F3D56"/>
<path d="M40.1413 61.3691C45.0501 61.3691 49.0294 56.5154 49.0294 50.5281C49.0294 44.5408 45.0501 39.6872 40.1413 39.6872C35.2326 39.6872 31.2533 44.5408 31.2533 50.5281C31.2533 56.5154 35.2326 61.3691 40.1413 61.3691Z" fill="#FFB8B8"/>
<path d="M52.6507 65.9256C52.6002 65.8682 52.5495 65.8065 52.4952 65.7535C51.8756 65.0721 51.1423 64.5626 50.3458 64.2601C49.5493 63.9576 48.7085 63.8693 47.8813 64.0012L31.5027 66.5303C30.0024 66.7567 28.6333 67.6872 27.6861 69.1243C26.7389 70.5615 26.2881 72.3922 26.4292 74.2281C26.6536 77.309 27.0155 81.1976 27.5945 85.1525H53.4687L54.4203 71.6637C54.4969 70.6066 54.3776 69.5421 54.0713 68.5488C53.765 67.5556 53.2795 66.6591 52.6507 65.9256Z" fill="#3F3D56"/>
<path d="M29.8721 49.4646H33.3875L34.9383 44.1679L35.2484 49.4646H36.9286L37.8333 46.3749L38.0143 49.4646H50.499C50.499 46.4209 49.5077 43.502 47.7432 41.3498C45.9787 39.1976 43.5856 37.9885 41.0902 37.9885H39.2808C36.7855 37.9885 34.3923 39.1976 32.6278 41.3498C30.8633 43.502 29.8721 46.4209 29.8721 49.4646Z" fill="#2F2E41"/>
<path d="M179.946 104.274V6.31068C179.948 4.63757 180.493 3.03352 181.463 1.85045C182.433 0.66737 183.748 0.00188444 185.12 0H319.902C321.254 0.00188211 322.549 0.65765 323.505 1.82343C324.461 2.98921 324.999 4.5698 325 6.21844V104.274C324.998 106.439 324.292 108.515 323.037 110.046C321.782 111.577 320.08 112.438 318.305 112.44H186.641C184.866 112.438 183.164 111.577 181.909 110.046C180.654 108.515 179.948 106.439 179.946 104.274Z" fill="white"/>
<path d="M179.946 104.274V6.31068C179.948 4.63757 180.493 3.03352 181.463 1.85045C182.433 0.66737 183.748 0.00188444 185.12 0H319.902C321.254 0.00188211 322.549 0.65765 323.505 1.82343C324.461 2.98921 324.999 4.5698 325 6.21844V104.274C324.998 106.439 324.292 108.515 323.037 110.046C321.782 111.577 320.08 112.438 318.305 112.44H186.641C184.866 112.438 183.164 111.577 181.909 110.046C180.654 108.515 179.948 106.439 179.946 104.274ZM185.12 1.76555C184.132 1.7669 183.185 2.24619 182.486 3.09828C181.788 3.95037 181.395 5.10566 181.394 6.31068V104.274C181.395 105.971 181.949 107.598 182.932 108.798C183.916 109.998 185.25 110.673 186.641 110.675H318.305C319.696 110.673 321.03 109.998 322.014 108.798C322.998 107.598 323.551 105.971 323.553 104.274V6.21844C323.551 5.0379 323.166 3.9061 322.482 3.07132C321.798 2.23653 320.87 1.76693 319.902 1.76555H185.12Z" fill="#E6E6E6"/>
<path d="M260.908 82.7585V29.6816C260.909 28.3943 261.329 27.1602 262.075 26.25C262.821 25.3398 263.833 24.8277 264.888 24.8263H304.34C305.395 24.8277 306.407 25.3398 307.153 26.25C307.9 27.1602 308.319 28.3943 308.321 29.6816V82.7585C308.322 82.9706 308.31 83.1826 308.286 83.3927C308.159 84.5597 307.689 85.6307 306.963 86.407C306.237 87.1832 305.305 87.612 304.34 87.6137H264.888C263.833 87.6123 262.821 87.1003 262.075 86.19C261.329 85.2798 260.909 84.0457 260.908 82.7585ZM264.888 27.4746C264.409 27.4753 263.949 27.708 263.609 28.1218C263.27 28.5355 263.079 29.0964 263.079 29.6816V82.7585C263.079 83.3436 263.27 83.9045 263.609 84.3183C263.949 84.732 264.409 84.9647 264.888 84.9654H304.34C304.781 84.9639 305.206 84.7667 305.537 84.4104C305.867 84.0542 306.08 83.5634 306.136 83.0298C306.145 82.9399 306.15 82.8492 306.149 82.7585V29.6816C306.149 29.0964 305.958 28.5355 305.619 28.1218C305.28 27.708 304.82 27.4753 304.34 27.4746H264.888Z" fill="#E6E6E6"/>
<path d="M196.626 66.8243C196.627 65.8881 196.932 64.9906 197.475 64.3286C198.017 63.6667 198.753 63.2943 199.521 63.2932H247.288C248.056 63.2932 248.793 63.6652 249.335 64.3274C249.878 64.9897 250.183 65.8878 250.183 66.8243C250.183 67.7608 249.878 68.659 249.335 69.3212C248.793 69.9834 248.056 70.3554 247.288 70.3554H199.521C198.753 70.3544 198.017 69.982 197.475 69.32C196.932 68.658 196.627 67.7605 196.626 66.8243Z" fill="#E6E6E6"/>
<path d="M196.626 51.8171C196.627 50.881 196.932 49.9834 197.475 49.3215C198.017 48.6595 198.753 48.2871 199.521 48.286H225.576C226.344 48.286 227.08 48.6581 227.623 49.3203C228.166 49.9825 228.471 50.8806 228.471 51.8171C228.471 52.7537 228.166 53.6518 227.623 54.314C227.08 54.9762 226.344 55.3482 225.576 55.3482H199.521C198.753 55.3472 198.017 54.9748 197.475 54.3128C196.932 53.6509 196.627 52.7533 196.626 51.8171Z" fill="#E6E6E6"/>
<path d="M274.864 45.4523C277.401 51.5362 279.401 57.8112 284.997 57.8112C287.684 57.8112 290.262 56.5091 292.162 54.1914C294.062 51.8736 295.13 48.7301 295.13 45.4523C295.13 42.1745 294.062 39.031 292.162 36.7133C290.262 34.3955 287.684 33.0934 284.997 33.0934C279.31 33.0066 270.142 34.1283 274.864 45.4523Z" fill="#2F2E41"/>
<path d="M284.498 58.0518C289.407 58.0518 293.386 53.1982 293.386 47.2109C293.386 41.2236 289.407 36.37 284.498 36.37C279.59 36.37 275.61 41.2236 275.61 47.2109C275.61 53.1982 279.59 58.0518 284.498 58.0518Z" fill="#A0616A"/>
<path d="M296.633 66.9718C296.06 66.2104 295.436 65.5077 294.769 64.8707C291.852 62.0817 288.195 60.6992 284.495 60.9865C284.347 60.9953 284.199 61.0086 284.05 61.0263C281.908 61.2351 279.826 61.9982 277.945 63.2646C276.063 64.531 274.424 66.2717 273.136 68.3709C271.829 70.5022 270.91 72.9495 270.44 75.549C269.971 78.1486 269.962 80.8404 270.415 83.4444C270.513 83.9961 270.599 84.5522 270.683 85.1084H300.147L300.487 82.3276C300.827 79.5795 300.657 76.7732 299.99 74.1156C299.323 71.458 298.176 69.0168 296.633 66.9718Z" fill="#3F3D56"/>
<path d="M301.145 69.8716C300.938 68.4212 300.319 67.1056 299.398 66.1539C298.477 65.2022 297.312 64.6747 296.104 64.6633C296.057 64.6633 296.007 64.6677 295.96 64.6677C295.558 64.6789 295.158 64.747 294.769 64.8707C294.115 65.0827 293.502 65.4502 292.965 65.952C292.428 66.4538 291.977 67.0801 291.639 67.795C291.3 68.5098 291.081 69.2991 290.994 70.1175C290.906 70.9359 290.952 71.7674 291.129 72.5641L293.912 85.1083H303.277L301.145 69.8716Z" fill="#3F3D56"/>
<path d="M280.537 66.5833C280.184 65.7377 279.677 65.0011 279.057 64.4293C278.617 64.0244 278.125 63.7112 277.602 63.5024C277.388 63.4132 277.169 63.3424 276.947 63.2906C275.736 63.0112 274.484 63.2687 273.416 64.0165C272.347 64.7644 271.533 65.9534 271.121 67.369L266.026 85.1084H275.695L280.627 72.0609C280.956 71.2001 281.119 70.2588 281.103 69.3093C281.087 68.3598 280.894 67.4273 280.537 66.5833Z" fill="#3F3D56"/>
<path d="M275.067 41.0842C277.098 42.7916 279.508 43.7003 281.975 43.6883C281.095 44.4325 280.094 44.9351 279.039 45.1616C282.319 46.0197 285.708 46.043 288.996 45.2299C289.726 45.087 290.431 44.7916 291.08 44.3567C291.403 44.1366 291.685 43.836 291.906 43.4744C292.128 43.1128 292.285 42.6984 292.367 42.258C292.585 40.7359 291.613 39.353 290.602 38.421C289.055 37.0159 287.271 36.0477 285.379 35.5867C283.488 35.1256 281.536 35.1832 279.665 35.7552C278.443 36.1404 277.219 36.7912 276.425 37.988C275.632 39.1848 275.397 41.0298 276.153 42.2622L275.067 41.0842Z" fill="#2F2E41"/>
<path d="M228.332 176H96.6678C94.8929 175.998 93.1912 175.136 91.9362 173.606C90.6811 172.075 89.9751 169.999 89.9731 167.834V69.7783C89.9746 68.1297 90.5122 66.5491 91.468 65.3833C92.4237 64.2175 93.7196 63.5618 95.0712 63.5599H229.853C231.225 63.5618 232.54 64.2272 233.51 65.4103C234.48 66.5934 235.025 68.1975 235.027 69.8706V167.834C235.025 169.999 234.319 172.075 233.064 173.606C231.809 175.136 230.107 175.998 228.332 176Z" fill="white"/>
<path d="M228.332 176H96.6678C94.8929 175.998 93.1912 175.136 91.9362 173.606C90.6811 172.075 89.9751 169.999 89.9731 167.834V69.7783C89.9746 68.1297 90.5122 66.5491 91.468 65.3833C92.4237 64.2175 93.7196 63.5618 95.0712 63.5599H229.853C231.225 63.5618 232.54 64.2272 233.51 65.4103C234.48 66.5934 235.025 68.1975 235.027 69.8706V167.834C235.025 169.999 234.319 172.075 233.064 173.606C231.809 175.136 230.107 175.998 228.332 176ZM95.0712 65.3254C94.1033 65.3268 93.1754 65.7964 92.4911 66.6312C91.8067 67.466 91.4217 68.5978 91.4206 69.7783V167.834C91.4222 169.531 91.9756 171.158 92.9593 172.358C93.943 173.558 95.2767 174.233 96.6678 174.234H228.332C229.723 174.233 231.057 173.558 232.041 172.358C233.024 171.158 233.578 169.531 233.579 167.834V69.8706C233.578 68.6655 233.185 67.5102 232.487 66.6582C231.788 65.8061 230.841 65.3268 229.853 65.3254H95.0712Z" fill="#3F3D56"/>
<path d="M150.085 151.174H110.633C109.668 151.172 108.736 150.743 108.01 149.967C107.285 149.191 106.814 148.12 106.687 146.953C106.663 146.742 106.651 146.531 106.653 146.318V93.2414C106.654 91.9542 107.073 90.7201 107.82 89.8099C108.566 88.8996 109.578 88.3876 110.633 88.3862H150.085C151.14 88.3876 152.152 88.8996 152.898 89.8099C153.645 90.7201 154.064 91.9542 154.066 93.2414V146.318C154.064 147.606 153.645 148.84 152.898 149.75C152.152 150.66 151.14 151.172 150.085 151.174ZM110.633 91.0345C110.153 91.0352 109.694 91.2679 109.354 91.6816C109.015 92.0954 108.824 92.6563 108.824 93.2414V146.318C108.823 146.409 108.828 146.5 108.838 146.59C108.893 147.123 109.106 147.614 109.436 147.97C109.767 148.327 110.192 148.524 110.633 148.525H150.085C150.565 148.525 151.024 148.292 151.364 147.878C151.703 147.464 151.894 146.903 151.894 146.318V93.2414C151.894 92.6563 151.703 92.0954 151.364 91.6816C151.024 91.2679 150.565 91.0352 150.085 91.0345H110.633Z" fill="#E6E6E6"/>
<path d="M129.786 98.0896C127.218 96.6323 124.065 96.1546 121.452 97.5087C118.838 98.8629 117.057 102.334 117.902 105.406C118.285 106.798 119.157 108.168 118.817 109.574C118.556 110.657 117.643 111.372 116.747 111.88C115.85 112.388 114.87 112.816 114.221 113.673C113.573 114.53 113.438 116.006 114.248 116.67C114.514 116.889 114.848 116.993 115.107 117.224C115.327 117.443 115.486 117.74 115.562 118.074C115.637 118.408 115.625 118.762 115.528 119.088C115.312 119.743 114.956 120.315 114.496 120.743C113.577 121.71 112.362 122.817 112.647 124.19C112.753 124.557 112.93 124.887 113.163 125.153C113.396 125.419 113.678 125.612 113.985 125.716C114.623 125.941 115.285 126.047 115.949 126.032L143.078 127.075C143.973 127.157 144.874 127.095 145.756 126.892C146.185 126.797 146.593 126.594 146.955 126.298C147.317 126.001 147.625 125.617 147.86 125.169C148.379 123.996 148.038 122.551 147.396 121.456C146.755 120.36 145.847 119.497 145.097 118.491C144.346 117.485 143.733 116.23 143.865 114.93C143.971 113.889 144.533 112.99 144.937 112.045C145.341 111.099 145.576 109.918 145.053 109.048C144.315 107.823 142.546 107.934 141.708 106.792C141.075 105.93 141.197 104.689 141.135 103.578C140.983 100.904 139.466 98.3796 137.306 97.2072C136.207 96.6321 135.013 96.3839 133.82 96.4829C132.628 96.582 131.471 97.0255 130.447 97.777L129.786 98.0896Z" fill="#2F2E41"/>
<path d="M130.79 126.818C135.699 126.818 139.678 121.965 139.678 115.977C139.678 109.99 135.699 105.136 130.79 105.136C125.881 105.136 121.902 109.99 121.902 115.977C121.902 121.965 125.881 126.818 130.79 126.818Z" fill="#A0616A"/>
<path d="M142.459 140.819C142.45 138.918 142.019 137.057 141.211 135.432C140.402 133.808 139.248 132.481 137.87 131.594C137.758 131.519 137.642 131.452 137.527 131.386C136.527 130.808 135.444 130.472 134.339 130.397L125.878 129.819C124.683 129.736 123.487 129.96 122.368 130.477C122.095 130.601 121.828 130.742 121.568 130.901C120.75 131.392 120.002 132.04 119.353 132.821C118.498 133.85 117.829 135.087 117.389 136.45C116.949 137.814 116.748 139.275 116.798 140.739L116.95 145.113L118.014 148.481H141.67C141.964 148.047 142.218 147.577 142.43 147.077C142.831 146.108 143.042 145.038 143.047 143.952C143.053 142.866 142.851 141.794 142.459 140.819Z" fill="#3F3D56"/>
<path d="M141.88 135.019C141.494 133.997 140.889 133.122 140.129 132.485C139.58 132.027 138.965 131.7 138.315 131.523C138.056 131.453 137.792 131.408 137.527 131.386C137.004 131.343 136.479 131.398 135.971 131.549C135.211 131.78 134.504 132.218 133.904 132.83C133.303 133.443 132.825 134.214 132.505 135.085C132.184 135.956 132.03 136.905 132.055 137.859C132.079 138.813 132.281 139.748 132.645 140.593L135.898 148.106L136.061 148.481H146.986L141.88 135.019Z" fill="#3F3D56"/>
<path d="M124 131.104C123.488 130.786 122.936 130.574 122.368 130.477C121.944 130.403 121.515 130.396 121.09 130.455C120.009 130.604 118.994 131.166 118.191 132.061C117.388 132.956 116.837 134.138 116.617 135.438L114.414 148.481H123.034L124.644 147.678L126.649 138.294C126.94 136.907 126.837 135.44 126.356 134.133C125.875 132.827 125.044 131.759 124 131.104Z" fill="#3F3D56"/>
<path d="M121.697 114.436C124.504 114.161 126.834 110.741 126.543 107.325C126.51 108.733 126.902 110.107 127.646 111.185C128.389 112.263 129.431 112.97 130.574 113.171C131.862 113.345 133.273 112.869 134.394 113.662C135.635 114.539 136.032 116.67 137.326 117.428C138.575 118.16 140.162 117.162 140.779 115.648C141.396 114.134 141.245 112.315 140.836 110.7C140.252 108.396 139.19 106.316 137.752 104.661C136.314 103.006 134.55 101.834 132.631 101.257C130.711 100.681 128.702 100.72 126.799 101.371C124.895 102.022 123.162 103.263 121.769 104.973C120.589 106.421 119.651 108.266 119.499 110.299C119.347 112.333 120.121 114.539 121.618 115.453L121.697 114.436Z" fill="#2F2E41"/>
<path d="M215.452 133.915H167.685C166.917 133.915 166.181 133.543 165.638 132.881C165.095 132.219 164.79 131.321 164.79 130.384C164.79 129.448 165.095 128.55 165.638 127.887C166.181 127.225 166.917 126.853 167.685 126.853H215.452C216.22 126.853 216.957 127.225 217.499 127.887C218.042 128.55 218.347 129.448 218.347 130.384C218.347 131.321 218.042 132.219 217.499 132.881C216.957 133.543 216.22 133.915 215.452 133.915Z" fill="#E6E6E6"/>
<path d="M193.74 118.908H167.685C166.917 118.908 166.181 118.536 165.638 117.874C165.095 117.212 164.79 116.313 164.79 115.377C164.79 114.44 165.095 113.542 165.638 112.88C166.181 112.218 166.917 111.846 167.685 111.846H193.74C194.508 111.846 195.244 112.218 195.787 112.88C196.33 113.542 196.635 114.44 196.635 115.377C196.635 116.313 196.33 117.212 195.787 117.874C195.244 118.536 194.508 118.908 193.74 118.908Z" fill="#FFAE00"/>
<path d="M207.72 144.696C205.192 144.701 202.768 145.931 200.982 148.113C199.196 150.296 198.192 153.254 198.192 156.339C198.192 159.423 199.196 162.381 200.982 164.564C202.768 166.747 205.192 167.976 207.72 167.982H207.72C210.249 167.976 212.672 166.747 214.459 164.564C216.245 162.381 217.248 159.423 217.248 156.339C217.248 153.254 216.245 150.296 214.459 148.113C212.672 145.931 210.249 144.701 207.72 144.696Z" fill="#FFAE00"/>
<path d="M206.814 161.174C206.563 161.175 206.319 161.075 206.118 160.892L206.105 160.88L203.48 158.431C203.235 158.201 203.075 157.862 203.034 157.488C202.994 157.114 203.077 156.736 203.265 156.437C203.453 156.138 203.731 155.942 204.038 155.892C204.344 155.843 204.654 155.943 204.9 156.172L206.6 157.763L210.618 151.369C210.711 151.221 210.827 151.097 210.96 151.003C211.092 150.91 211.239 150.849 211.39 150.825C211.542 150.8 211.696 150.812 211.844 150.861C211.992 150.909 212.131 150.992 212.253 151.106L212.253 151.106L212.228 151.148L212.254 151.106C212.499 151.336 212.659 151.675 212.7 152.049C212.74 152.423 212.657 152.801 212.469 153.101L207.743 160.617C207.634 160.791 207.493 160.931 207.333 161.027C207.172 161.123 206.995 161.173 206.816 161.172L206.814 161.174Z" fill="white"/>
</g>
<defs>
<clipPath id="clip0_26_19">
<rect width="325" height="176" fill="white"/>
</clipPath>
</defs>
</svg>
