<svg xmlns="http://www.w3.org/2000/svg" xmlns:xlink="http://www.w3.org/1999/xlink" viewBox="0 0 598.84 154.35"><defs><style>.cls-1{fill:url(#linear-gradient);}.cls-2{fill:#fff;}.cls-3{fill:#ffae00;}.cls-4{font-size:110px;font-family:Tahoma;letter-spacing:0.01em;}.cls-5{letter-spacing:0.01em;}.cls-6{letter-spacing:0em;}.cls-7{letter-spacing:0.01em;}</style><linearGradient id="linear-gradient" x1="10.47" y1="25.48" x2="584.01" y2="450.67" gradientUnits="userSpaceOnUse"><stop offset="0" stop-color="#5800ff"/><stop offset="0.28" stop-color="#0096ff"/><stop offset="0.65" stop-color="#00d7ff"/><stop offset="0.71" stop-color="#0edcff"/><stop offset="0.81" stop-color="#33e9ff"/><stop offset="0.96" stop-color="#6ffeff"/><stop offset="0.96" stop-color="#72ffff"/></linearGradient></defs><g id="Layer_2" data-name="Layer 2"><g id="Layer_1-2" data-name="Layer 1"><rect class="cls-1" width="137" height="137" rx="14.29"/><path class="cls-2" d="M60.5,29.5c-3.94,0-6.77.61-8.86,2.75S46.47,46.32,44.5,53.5l-6,4,.25-34.61h66.7v3.27L75.13,69.69l32.34,41.18v3.28H39L38.5,74.5l6,2c1.2,6.15,2.92,22.27,4.79,24s4.91,2.61,9.1,2.61H91.08L63.3,67.62v-4L88.05,29Z"/><circle class="cls-3" cx="46.75" cy="65.75" r="7.25"/><text class="cls-4" transform="translate(171.39 108.27)">Sand<tspan class="cls-5" x="245.56" y="0">B</tspan><tspan class="cls-6" x="312.03" y="0">o</tspan><tspan class="cls-7" x="371.89" y="0">x</tspan></text></g></g></svg>