<svg width="178" height="177" viewBox="0 0 178 177" fill="none" xmlns="http://www.w3.org/2000/svg">
<g clip-path="url(#clip0_26_190)">
<path d="M116.982 46.7614H87.8731C87.2358 46.7633 86.6065 46.6199 86.033 46.3419C85.4596 46.064 84.957 45.659 84.5637 45.1576C84.1632 44.6514 83.8834 44.0606 83.7458 43.4301C83.6081 42.7995 83.6161 42.1458 83.7692 41.5189C86.452 30.2816 86.4519 18.5706 83.769 7.33334C83.616 6.70636 83.6081 6.05275 83.7458 5.42224C83.8835 4.79173 84.1632 4.20094 84.5636 3.69481C84.9569 3.19339 85.4595 2.7883 86.033 2.51037C86.6065 2.23245 87.2358 2.089 87.8731 2.09096H116.982C117.987 2.09385 118.959 2.4534 119.724 3.10556C120.488 3.75772 120.997 4.66015 121.158 5.65213C123.074 18.0949 123.074 30.7575 121.158 43.2002C120.997 44.1922 120.488 45.0946 119.724 45.7468C118.959 46.399 117.987 46.7585 116.982 46.7614Z" fill="#919099"/>
<path d="M87.8729 4.2812C87.5669 4.28017 87.2646 4.34896 86.9892 4.48233C86.7137 4.61571 86.4723 4.81015 86.2833 5.05086C86.0887 5.2975 85.9529 5.58527 85.8863 5.89229C85.8196 6.19931 85.8239 6.51749 85.8987 6.82262C88.6618 18.3956 88.6619 30.4566 85.8989 42.0297C85.824 42.3347 85.8197 42.6528 85.8863 42.9598C85.9529 43.2668 86.0887 43.5545 86.2832 43.8011L86.2834 43.8012C86.4724 44.042 86.7137 44.2365 86.9892 44.3699C87.2646 44.5033 87.5669 44.5721 87.8729 44.5711H116.982C117.465 44.5712 117.932 44.4001 118.3 44.0881C118.668 43.7761 118.914 43.3435 118.993 42.8674C120.875 30.6452 120.875 18.207 118.993 5.98486C118.914 5.50874 118.668 5.07617 118.3 4.76418C117.932 4.45219 117.465 4.28103 116.982 4.28119L87.8729 4.2812Z" fill="white"/>
<path d="M110.63 14.8131H95.3546C94.7739 14.8124 94.2172 14.5815 93.8066 14.1709C93.396 13.7603 93.1651 13.2036 93.1644 12.6229V11.767C93.1651 11.1863 93.396 10.6296 93.8066 10.219C94.2172 9.80837 94.7739 9.57742 95.3546 9.57678H110.63C111.211 9.57742 111.767 9.80837 112.178 10.219C112.589 10.6296 112.82 11.1863 112.82 11.767V12.6229C112.82 13.2036 112.589 13.7603 112.178 14.1709C111.767 14.5815 111.211 14.8124 110.63 14.8131Z" fill="#2F2E41" fill-opacity="0.3"/>
<path d="M110.63 25.6279H95.3546C94.7739 25.6272 94.2172 25.3963 93.8066 24.9857C93.396 24.5751 93.1651 24.0184 93.1644 23.4377V22.5818C93.1651 22.0011 93.396 21.4444 93.8066 21.0338C94.2172 20.6232 94.7739 20.3922 95.3546 20.3916H110.63C111.211 20.3922 111.767 20.6232 112.178 21.0338C112.589 21.4444 112.82 22.0011 112.82 22.5818V23.4377C112.82 24.0184 112.589 24.5751 112.178 24.9857C111.767 25.3963 111.211 25.6272 110.63 25.6279Z" fill="#2F2E41" fill-opacity="0.3"/>
<path d="M110.63 36.4428H95.3546C94.7739 36.4421 94.2172 36.2112 93.8066 35.8006C93.396 35.39 93.1651 34.8332 93.1644 34.2526V33.3967C93.1651 32.816 93.396 32.2593 93.8066 31.8487C94.2172 31.4381 94.7739 31.2071 95.3546 31.2065H110.63C111.211 31.2071 111.767 31.4381 112.178 31.8487C112.589 32.2593 112.82 32.816 112.82 33.3967V34.2526C112.82 34.8332 112.589 35.39 112.178 35.8006C111.767 36.2112 111.211 36.4421 110.63 36.4428Z" fill="#2F2E41" fill-opacity="0.3"/>
<path d="M171.739 74.5049H142.63C141.993 74.5069 141.363 74.3634 140.79 74.0855C140.217 73.8076 139.714 73.4025 139.321 72.9011C138.92 72.395 138.64 71.8041 138.503 71.1736C138.365 70.543 138.373 69.8894 138.526 69.2624C141.209 58.0251 141.209 46.3141 138.526 35.0769C138.373 34.4499 138.365 33.7963 138.503 33.1658C138.64 32.5353 138.92 31.9445 139.321 31.4383C139.714 30.9369 140.216 30.5318 140.79 30.2539C141.363 29.976 141.993 29.8325 142.63 29.8345H171.739C172.744 29.8374 173.716 30.1969 174.48 30.8491C175.245 31.5012 175.754 32.4037 175.915 33.3957C177.831 45.8384 177.831 58.501 175.915 70.9438C175.754 71.9357 175.245 72.8382 174.48 73.4903C173.716 74.1425 172.744 74.502 171.739 74.5049Z" fill="#919099"/>
<path d="M142.63 32.0248C142.324 32.0238 142.022 32.0925 141.746 32.2259C141.471 32.3593 141.229 32.5537 141.04 32.7945C140.846 33.0411 140.71 33.3289 140.643 33.6359C140.577 33.9429 140.581 34.2611 140.656 34.5662C143.419 46.1392 143.419 58.2002 140.656 69.7732C140.581 70.0783 140.577 70.3964 140.643 70.7034C140.71 71.0103 140.846 71.2981 141.04 71.5446L141.04 71.5448C141.229 71.7856 141.471 71.9801 141.746 72.1135C142.022 72.2469 142.324 72.3157 142.63 72.3147H171.739C172.222 72.3148 172.689 72.1437 173.057 71.8317C173.426 71.5197 173.671 71.0871 173.75 70.611C175.632 58.3888 175.632 45.9506 173.75 33.7285C173.671 33.2523 173.426 32.8198 173.057 32.5078C172.689 32.1958 172.222 32.0246 171.739 32.0248L142.63 32.0248Z" fill="white"/>
<path d="M113.697 106.082H84.5875C83.9227 106.084 83.2661 105.934 82.6678 105.644C82.0695 105.354 81.5452 104.931 81.1348 104.408C80.7172 103.88 80.4255 103.264 80.2819 102.607C80.1383 101.949 80.1466 101.268 80.3062 100.614C82.9823 89.4046 82.9822 77.7228 80.306 66.5136C80.1465 65.8597 80.1382 65.1782 80.2819 64.5207C80.4255 63.8632 80.7172 63.2472 81.1347 62.7194C81.5451 62.1963 82.0694 61.7737 82.6677 61.4837C83.2661 61.1937 83.9226 61.044 84.5875 61.046H113.697C114.745 61.0492 115.759 61.4244 116.557 62.1049C117.354 62.7854 117.885 63.727 118.053 64.7619C119.972 77.2231 119.972 89.9045 118.053 102.366C117.885 103.401 117.354 104.342 116.557 105.023C115.759 105.703 114.745 106.078 113.697 106.082Z" fill="#F2F2F2"/>
<path d="M84.5875 105.582L84.586 105.582C83.9972 105.583 83.4157 105.451 82.8858 105.194L82.6678 105.644L82.8858 105.194C82.356 104.937 81.8917 104.563 81.5282 104.1L81.5269 104.098C81.1565 103.63 80.8977 103.083 80.7704 102.5C80.643 101.917 80.6504 101.312 80.7919 100.732L80.7925 100.73C83.4868 89.4444 83.4868 77.683 80.7923 66.3974L80.7923 66.3974L80.7917 66.3951C80.6503 65.8151 80.643 65.2106 80.7703 64.6274C80.8977 64.0442 81.1564 63.4978 81.5268 63.0297L81.5268 63.0297L81.5281 63.028C81.8916 62.5647 82.3559 62.1904 82.8858 61.9336C83.4157 61.6768 83.9972 61.5443 84.586 61.546H84.5875H113.696C114.626 61.549 115.525 61.8818 116.232 62.4853C116.939 63.0885 117.41 63.9231 117.559 64.8404C119.47 77.2495 119.47 89.878 117.559 102.287C117.41 103.204 116.939 104.039 116.232 104.642C115.525 105.246 114.626 105.578 113.697 105.582C113.696 105.582 113.696 105.582 113.695 105.582L84.5875 105.582Z" stroke="#2F2E41" stroke-opacity="0.5"/>
<path d="M165.387 48.0324H150.112C149.531 48.0317 148.974 47.8008 148.564 47.3902C148.153 46.9796 147.922 46.4229 147.921 45.8422V44.9863C147.922 44.4056 148.153 43.8489 148.564 43.4383C148.974 43.0277 149.531 42.7967 150.112 42.7961H165.387C165.968 42.7967 166.524 43.0277 166.935 43.4383C167.346 43.8489 167.577 44.4056 167.577 44.9863V45.8422C167.577 46.4229 167.346 46.9796 166.935 47.3902C166.524 47.8008 165.968 48.0317 165.387 48.0324Z" fill="#2F2E41" fill-opacity="0.3"/>
<path d="M165.387 58.8472H150.112C149.531 58.8465 148.974 58.6156 148.564 58.205C148.153 57.7944 147.922 57.2377 147.921 56.657V55.8011C147.922 55.2204 148.153 54.6637 148.564 54.2531C148.974 53.8425 149.531 53.6115 150.112 53.6109H165.387C165.968 53.6115 166.524 53.8425 166.935 54.2531C167.346 54.6637 167.577 55.2204 167.577 55.8011V56.657C167.577 57.2377 167.346 57.7944 166.935 58.205C166.524 58.6156 165.968 58.8465 165.387 58.8472Z" fill="#2F2E41" fill-opacity="0.3"/>
<path d="M99.2237 91.8092C103.861 91.8092 107.62 88.0502 107.62 83.4132C107.62 78.7761 103.861 75.0171 99.2237 75.0171C94.5867 75.0171 90.8276 78.7761 90.8276 83.4132C90.8276 88.0502 94.5867 91.8092 99.2237 91.8092Z" fill="white"/>
<path d="M103.239 82.3181H100.319V79.3977C100.319 79.1072 100.203 78.8287 99.9981 78.6233C99.7927 78.4179 99.5141 78.3026 99.2237 78.3026C98.9332 78.3026 98.6547 78.4179 98.4493 78.6233C98.2439 78.8287 98.1285 79.1072 98.1285 79.3977V82.3181H95.2082C94.9177 82.3181 94.6392 82.4334 94.4338 82.6388C94.2284 82.8442 94.113 83.1228 94.113 83.4132C94.113 83.7037 94.2284 83.9822 94.4338 84.1876C94.6392 84.393 94.9177 84.5083 95.2082 84.5083H98.1285V87.4287C98.1285 87.7192 98.2439 87.9977 98.4493 88.2031C98.6547 88.4085 98.9332 88.5239 99.2237 88.5239C99.5141 88.5239 99.7927 88.4085 99.9981 88.2031C100.203 87.9977 100.319 87.7192 100.319 87.4287V84.5083H103.239C103.53 84.5083 103.808 84.393 104.014 84.1876C104.219 83.9822 104.334 83.7037 104.334 83.4132C104.334 83.1228 104.219 82.8442 104.014 82.6388C103.808 82.4334 103.53 82.3181 103.239 82.3181Z" fill="#2F2E41" fill-opacity="0.3"/>
<path d="M109.81 6.20579H94.4779C94.0424 6.2053 93.6249 6.03207 93.3169 5.72411C93.0089 5.41615 92.8357 4.9986 92.8352 4.56308V1.64271C92.8357 1.20719 93.0089 0.789642 93.3169 0.48168C93.6249 0.173719 94.0424 0.000490826 94.4779 0H109.81C110.245 0.000490826 110.663 0.173719 110.971 0.48168C111.279 0.789642 111.452 1.20719 111.453 1.64271V4.56308C111.452 4.9986 111.279 5.41615 110.971 5.72411C110.663 6.03207 110.245 6.2053 109.81 6.20579Z" fill="#919099"/>
<path d="M165.297 34.3143H149.965C149.53 34.3138 149.112 34.1406 148.804 33.8326C148.496 33.5247 148.323 33.1071 148.322 32.6716V29.7512C148.323 29.3157 148.496 28.8982 148.804 28.5902C149.112 28.2822 149.53 28.109 149.965 28.1085H165.297C165.733 28.109 166.15 28.2822 166.458 28.5902C166.766 28.8982 166.939 29.3157 166.94 29.7512V32.6716C166.939 33.1071 166.766 33.5247 166.458 33.8326C166.15 34.1406 165.733 34.3138 165.297 34.3143Z" fill="#919099"/>
<path d="M32.3417 171.959H36.8171L38.2164 154.697H32.3409L32.3417 171.959Z" fill="#FFB8B8"/>
<path d="M31.2002 170.498L40.0138 170.498H40.0142C40.7518 170.498 41.4822 170.643 42.1636 170.925C42.8451 171.207 43.4643 171.621 43.9858 172.143C44.5074 172.664 44.9211 173.284 45.2034 173.965C45.4857 174.646 45.631 175.377 45.631 176.114V176.297L31.2005 176.297L31.2002 170.498Z" fill="#2F2E41"/>
<path d="M8.24866 171.959H12.7241L14.8534 154.697H8.24792L8.24866 171.959Z" fill="#FFB8B8"/>
<path d="M7.10706 170.498L15.9207 170.498H15.921C16.6586 170.498 17.389 170.643 18.0705 170.925C18.7519 171.207 19.3711 171.621 19.8927 172.143C20.4143 172.664 20.828 173.284 21.1103 173.965C21.3925 174.646 21.5378 175.377 21.5378 176.114V176.297L7.10733 176.297L7.10706 170.498Z" fill="#2F2E41"/>
<path d="M9.04268 166.506C8.58615 166.506 8.14635 166.334 7.81065 166.025C7.63044 165.86 7.4853 165.661 7.38395 165.439C7.2826 165.217 7.22712 164.977 7.22083 164.734L5.42603 100.407L30.9103 106.778L38.7733 130.367C39.7872 133.401 40.2262 136.598 40.0675 139.794L39.0912 162.659C39.0689 163.128 38.8671 163.569 38.5275 163.893C38.188 164.216 37.737 164.397 37.268 164.396H32.9937C32.5525 164.395 32.1267 164.234 31.7945 163.943C31.4623 163.653 31.2459 163.253 31.1849 162.816L28.1299 137.576C27.8629 135.607 27.1741 133.719 26.1106 132.04L20.0984 122.521C20.0582 122.458 19.9994 122.408 19.9299 122.379C19.8604 122.35 19.7837 122.344 19.7103 122.36C19.6369 122.376 19.5703 122.415 19.5197 122.471C19.4691 122.526 19.437 122.596 19.4276 122.671L14.7095 164.684C14.6589 165.11 14.4595 165.504 14.1465 165.798C13.8336 166.091 13.427 166.265 12.9986 166.289L9.14659 166.503C9.11193 166.505 9.07735 166.506 9.04268 166.506Z" fill="#2F2E41"/>
<path d="M26.6695 58.7605C31.6213 58.7605 35.6355 54.7463 35.6355 49.7946C35.6355 44.8429 31.6213 40.8287 26.6695 40.8287C21.7178 40.8287 17.7036 44.8429 17.7036 49.7946C17.7036 54.7463 21.7178 58.7605 26.6695 58.7605Z" fill="#FFB8B8"/>
<path d="M30.7882 109.394C30.6339 109.394 30.4803 109.375 30.3308 109.336H30.3306L5.04587 102.853C4.5938 102.737 4.20327 102.453 3.95457 102.058C3.70587 101.663 3.6179 101.188 3.70875 100.73L9.51559 69.449C9.87738 67.6408 10.6726 65.9475 11.833 64.5143C12.9934 63.0812 14.4843 61.9511 16.1776 61.221C17.8276 60.4908 19.6319 60.1779 21.4314 60.31C23.2309 60.4421 24.9702 61.0152 26.4959 61.9786C26.8499 62.1994 27.2064 62.4402 27.5555 62.6944C28.9605 63.7309 30.1063 65.0787 30.903 66.6323C31.6996 68.1859 32.1256 69.9029 32.1473 71.6488L32.6091 107.543C32.6122 107.785 32.5674 108.024 32.4774 108.248C32.3873 108.472 32.2538 108.676 32.0845 108.848C31.9152 109.02 31.7135 109.157 31.491 109.251C31.2685 109.345 31.0296 109.393 30.7882 109.394Z" fill="#FFAE00"/>
<path d="M7.64736 109.762C7.34573 109.318 7.1451 108.814 7.05959 108.284C6.97408 107.754 7.00578 107.212 7.15245 106.696C7.29911 106.18 7.55717 105.702 7.90846 105.296C8.25975 104.89 8.69573 104.567 9.18567 104.348L8.06103 91.3514L14.0208 94.5815L14.1751 106.428C14.4884 107.275 14.4799 108.208 14.1514 109.05C13.8228 109.892 13.1969 110.583 12.3922 110.994C11.5876 111.405 10.6602 111.507 9.78568 111.28C8.91116 111.053 8.15034 110.513 7.64737 109.762H7.64736Z" fill="#FFB8B8"/>
<path d="M9.77673 102.629C9.60857 102.629 9.44109 102.607 9.27818 102.566C8.92778 102.476 8.60805 102.294 8.35282 102.038C8.09758 101.782 7.91634 101.461 7.82824 101.111L4.8994 89.4715C3.87585 85.4065 4.36379 81.108 6.27243 77.3758L12.4084 65.3724C12.7963 63.9352 13.7335 62.7081 15.0179 61.9557C16.3023 61.2032 17.831 60.9857 19.2743 61.3501C19.9936 61.5317 20.6698 61.8544 21.2635 62.2993C21.8572 62.7443 22.3567 63.3027 22.733 63.9421C23.1171 64.5907 23.3682 65.3093 23.4719 66.0559C23.5756 66.8025 23.5296 67.5623 23.3368 68.291L14.6022 87.8231L14.7059 99.5176C14.7086 99.9302 14.5846 100.334 14.3506 100.673C14.1165 101.013 13.7838 101.273 13.3974 101.418L10.4744 102.503C10.2512 102.586 10.0149 102.629 9.77673 102.629Z" fill="#FFAE00"/>
<path d="M51.5876 104.982C51.0544 104.921 50.5411 104.744 50.0838 104.463C49.6264 104.182 49.2362 103.805 48.9406 103.357C48.6451 102.909 48.4513 102.401 48.3729 101.871C48.2946 101.34 48.3336 100.798 48.4873 100.284L37.9033 92.6583L44.2393 90.2483L53.3186 97.8591C54.1653 98.1745 54.8669 98.7895 55.2905 99.5875C55.714 100.386 55.8301 101.311 55.6168 102.189C55.4034 103.067 54.8754 103.836 54.1328 104.351C53.3902 104.866 52.4846 105.09 51.5876 104.982H51.5876Z" fill="#FFB8B8"/>
<path d="M46.0469 99.4133C45.7349 99.413 45.4271 99.3404 45.1479 99.201L34.4159 93.8285C30.6673 91.9523 27.7277 88.7785 26.1437 84.8975L21.0486 72.4164C20.2125 71.1848 19.8938 69.674 20.1614 68.2096C20.4289 66.7452 21.2612 65.4446 22.4788 64.5882C23.0871 64.1605 23.7745 63.8581 24.5009 63.6987C25.2274 63.5393 25.9782 63.526 26.7098 63.6598C27.4499 63.7928 28.1563 64.0715 28.788 64.4796C29.4197 64.8876 29.9641 65.417 30.3898 66.037L39.4959 85.3989L48.427 92.949C48.7415 93.2161 48.9664 93.5733 49.0713 93.9723C49.1762 94.3713 49.156 94.7929 49.0135 95.1801L47.9294 98.1035C47.7879 98.4869 47.5322 98.8177 47.1968 99.0513C46.8597 99.2869 46.4583 99.4133 46.0469 99.4133Z" fill="#FFAE00"/>
<path d="M24.7869 58.8977C25.2633 59.1062 26.2388 55.3103 25.8018 54.5511C25.1519 53.422 25.1903 53.4301 24.7589 52.6831C24.3275 51.9362 24.231 50.9137 24.7897 50.2565C25.3483 49.5992 26.6412 49.6864 26.8961 50.5105C26.7321 48.9452 28.2803 47.687 29.8139 47.3334C31.3476 46.9798 32.9652 47.1994 34.5072 46.8847C36.2968 46.5195 38.1589 45.0194 37.4448 43.0515C37.3223 42.7238 37.1388 42.4223 36.9042 42.1629C36.0792 41.2354 34.9252 40.8393 33.7969 40.4563C31.4496 39.6596 29.0382 38.8529 26.5609 38.9409C24.5198 39.0476 22.554 39.747 20.9042 40.9535C19.2544 42.1601 17.9921 43.8213 17.2718 45.7341C17.1011 46.2126 16.9688 46.704 16.8763 47.2035C16.026 51.7755 18.681 56.2851 22.9931 58.0261L24.7869 58.8977Z" fill="#2F2E41"/>
<path opacity="0.2" d="M14.2002 99.7829L14.4035 87.7623L20.771 74.9597L15.6604 88.1014L14.2002 99.7829Z" fill="black"/>
<path d="M71.9423 129.95L45.0608 118.781C44.4716 118.539 43.9455 118.165 43.5225 117.688C43.0996 117.211 42.7909 116.644 42.6201 116.031C42.4444 115.41 42.4128 114.757 42.5276 114.121C42.6424 113.486 42.9006 112.886 43.2825 112.365C50.0716 103.018 54.5648 92.2029 56.3988 80.7963C56.4981 80.1587 56.7415 79.552 57.1106 79.0226C57.4797 78.4932 57.9646 78.0549 58.5286 77.7412C59.0842 77.429 59.7037 77.2478 60.34 77.2111C60.9762 77.1745 61.6124 77.2835 62.2002 77.5299L89.0816 88.6987C90.0086 89.0869 90.7677 89.7917 91.2237 90.6873C91.6796 91.583 91.8029 92.6114 91.5714 93.5894C88.5665 105.815 83.708 117.508 77.1648 128.264C76.635 129.118 75.8193 129.756 74.8629 130.065C73.9065 130.374 72.8715 130.333 71.9423 129.95Z" fill="#919099"/>
<path d="M61.3598 79.5525C61.0776 79.4341 60.7721 79.3817 60.4666 79.3992C60.161 79.4166 59.8635 79.5036 59.5966 79.6534C59.3222 79.8064 59.0864 80.0201 58.9071 80.278C58.7277 80.536 58.6096 80.8314 58.5616 81.1419C56.6729 92.8894 52.0453 104.027 45.0534 113.654C44.8672 113.907 44.7412 114.2 44.6849 114.509C44.6286 114.818 44.6436 115.135 44.7287 115.438L44.7288 115.438C44.8109 115.733 44.9592 116.005 45.1623 116.234C45.3655 116.463 45.6182 116.642 45.9013 116.759L72.7827 127.928C73.2283 128.113 73.7253 128.134 74.1851 127.987C74.6449 127.84 75.0376 127.535 75.2934 127.126C81.7206 116.561 86.4929 105.075 89.4446 93.0661C89.5542 92.5961 89.4934 92.1024 89.2731 91.673C89.0527 91.2436 88.687 90.9063 88.2413 90.7213L61.3598 79.5525Z" fill="white"/>
<path d="M75.6732 104.415L61.5669 98.5538C61.0309 98.3304 60.6054 97.9035 60.3838 97.3668C60.1621 96.8301 60.1624 96.2274 60.3847 95.6909L60.7131 94.9005C60.9364 94.3645 61.3633 93.939 61.9 93.7174C62.4368 93.4957 63.0395 93.4961 63.576 93.7183L77.6822 99.5792C78.2182 99.8026 78.6437 100.229 78.8654 100.766C79.087 101.303 79.0867 101.906 78.8645 102.442L78.5361 103.233C78.3127 103.768 77.8858 104.194 77.3491 104.416C76.8124 104.637 76.2097 104.637 75.6732 104.415Z" fill="#FFAE00"/>
<path d="M71.5236 114.402L57.4173 108.541C56.8813 108.318 56.4559 107.891 56.2342 107.354C56.0126 106.817 56.0129 106.215 56.2351 105.678L56.5635 104.888C56.7869 104.352 57.2138 103.926 57.7505 103.705C58.2872 103.483 58.89 103.483 59.4264 103.705L73.5327 109.566C74.0687 109.79 74.4942 110.217 74.7158 110.753C74.9375 111.29 74.9372 111.893 74.7149 112.429L74.3865 113.22C74.1632 113.756 73.7363 114.181 73.1996 114.403C72.6628 114.624 72.0601 114.624 71.5236 114.402Z" fill="#FFAE00"/>
<path d="M81.3255 90.379C81.1144 90.3788 80.9052 90.3379 80.7096 90.2583L66.4954 84.5115C66.0918 84.3478 65.7697 84.0307 65.5996 83.6298C65.4295 83.2289 65.4254 82.7769 65.5881 82.3729L66.6828 79.6654C66.8462 79.2615 67.1633 78.9391 67.5643 78.769C67.9654 78.5989 68.4176 78.595 68.8215 78.7583L83.0357 84.5051C83.4393 84.6688 83.7614 84.9859 83.9315 85.3868C84.1016 85.7877 84.1057 86.2397 83.943 86.6437L82.8483 89.3512C82.7253 89.6545 82.5148 89.9142 82.2436 90.0972C81.9723 90.2803 81.6527 90.3784 81.3255 90.379Z" fill="#919099"/>
<path d="M51.4716 176.5H0.365047C0.26823 176.5 0.175384 176.462 0.106925 176.393C0.0384654 176.325 0 176.232 0 176.135C0 176.038 0.0384654 175.945 0.106925 175.877C0.175384 175.808 0.26823 175.77 0.365047 175.77H51.4716C51.5684 175.77 51.6612 175.808 51.7297 175.877C51.7982 175.945 51.8366 176.038 51.8366 176.135C51.8366 176.232 51.7982 176.325 51.7297 176.393C51.6612 176.462 51.5684 176.5 51.4716 176.5Z" fill="#CCCCCC"/>
</g>
<defs>
<clipPath id="clip0_26_190">
<rect width="177.352" height="176.5" fill="white"/>
</clipPath>
</defs>
</svg>
