<svg width="327" height="163" viewBox="0 0 327 163" fill="none" xmlns="http://www.w3.org/2000/svg">
<g clip-path="url(#clip0_27_354)">
<g filter="url(#filter0_f_27_354)">
<rect x="46" y="11" width="220" height="130" fill="url(#paint0_linear_27_354)" fill-opacity="0.3"/>
</g>
<path d="M89.2818 133.282C98.1591 133.282 105.356 126.086 105.356 117.209C105.356 108.331 98.1591 101.135 89.2818 101.135C80.4045 101.135 73.208 108.331 73.208 117.209C73.208 126.086 80.4045 133.282 89.2818 133.282Z" fill="#E4E4E4"/>
<path opacity="0.2" d="M77.4134 106.473C75.9141 109.98 75.7107 113.906 76.8396 117.549C77.9685 121.192 80.356 124.316 83.5757 126.361C86.7954 128.406 90.6373 129.239 94.415 128.712C98.1926 128.185 101.66 126.333 104.197 123.485C103.281 125.627 101.91 127.545 100.18 129.106C98.4489 130.666 96.3996 131.831 94.1737 132.521C91.9479 133.211 89.5986 133.409 87.2888 133.1C84.979 132.792 82.7639 131.985 80.7969 130.736C78.8298 129.486 77.1579 127.824 75.897 125.865C74.6361 123.905 73.8163 121.694 73.4945 119.387C73.1727 117.079 73.3565 114.728 74.0331 112.498C74.7098 110.269 75.8632 108.212 77.4134 106.473Z" fill="black"/>
<path d="M89.3261 117.209H89.37L90.165 162.78H88.4868L89.3261 117.209Z" fill="#3F3D56"/>
<path d="M56.7597 103.307C74.658 103.307 89.1674 88.7975 89.1674 70.8993C89.1674 53.001 74.658 38.4916 56.7597 38.4916C38.8615 38.4916 24.3521 53.001 24.3521 70.8993C24.3521 88.7975 38.8615 103.307 56.7597 103.307Z" fill="#E4E4E4"/>
<path opacity="0.2" d="M32.831 49.2535C29.8081 56.3247 29.398 64.2403 31.674 71.5859C33.9501 78.9315 38.7639 85.2285 45.2553 89.3517C51.7468 93.4748 59.4928 95.1554 67.1092 94.0931C74.7257 93.0308 81.7162 89.2949 86.8317 83.5529C84.9851 87.8731 82.2213 91.7401 78.7318 94.8861C75.2424 98.0321 71.1106 100.382 66.6228 101.772C62.1351 103.163 57.3986 103.561 52.7417 102.94C48.0847 102.318 43.6185 100.692 39.6526 98.1726C35.6867 95.6536 32.3159 92.3025 29.7736 88.3514C27.2314 84.4003 25.5786 79.9438 24.9297 75.2905C24.2809 70.6372 24.6514 65.8985 26.0157 61.4027C27.38 56.9069 29.7055 52.7614 32.831 49.2535Z" fill="black"/>
<path d="M56.8487 70.8992H56.9379L58.5405 162.78H55.1572L56.8487 70.8992Z" fill="#3F3D56"/>
<path d="M270.424 115.223H121.882V159.258H270.424V115.223Z" fill="#F0F0F0"/>
<path d="M204.813 124.324H187.493V159.258H204.813V124.324Z" fill="#927F7F"/>
<path d="M261.764 63.2627H130.542V103.774H261.764V63.2627Z" fill="#F0F0F0"/>
<path d="M275.068 65.7578H117.238C116.975 65.7578 116.717 65.679 116.499 65.5315C116.281 65.3841 116.111 65.1747 116.013 64.9302C115.914 64.6858 115.891 64.4175 115.947 64.1599C116.002 63.9023 116.133 63.667 116.323 63.4844L159.458 22.0227V3.96286C159.458 3.61262 159.598 3.27684 159.845 3.02918C160.093 2.78153 160.429 2.64222 160.779 2.64182H169.292C169.642 2.64221 169.978 2.78151 170.226 3.02917C170.474 3.27683 170.613 3.61261 170.613 3.96286V11.3002L173.871 8.16849C179.203 3.04373 186.276 0.126763 193.67 0.00380657C201.065 -0.119149 208.231 2.56101 213.73 7.50568L275.951 63.4543C276.15 63.633 276.29 63.8678 276.352 64.1276C276.415 64.3875 276.397 64.6601 276.301 64.9097C276.206 65.1592 276.037 65.3738 275.816 65.5253C275.596 65.6767 275.335 65.7578 275.068 65.7578V65.7578Z" fill="#927F7F"/>
<path d="M165.182 73.5374C166.281 73.5374 167.369 73.7538 168.384 74.1742C169.399 74.5947 170.321 75.2109 171.098 75.9879C171.875 76.7648 172.491 77.6871 172.912 78.7022C173.332 79.7172 173.549 80.8052 173.549 81.9039V93.2061H156.816V81.9039C156.816 80.8052 157.032 79.7172 157.453 78.7021C157.873 77.6871 158.489 76.7648 159.266 75.9879C160.043 75.2109 160.965 74.5947 161.98 74.1742C162.996 73.7538 164.083 73.5374 165.182 73.5374Z" fill="white"/>
<path d="M196.153 73.6841C198.372 73.6841 200.5 74.5656 202.069 76.1346C203.638 77.7036 204.52 79.8317 204.52 82.0506V93.3528H187.787V82.0506C187.787 79.8317 188.668 77.7036 190.237 76.1346C191.806 74.5656 193.934 73.6841 196.153 73.6841Z" fill="white"/>
<path d="M227.124 73.8308C229.343 73.8308 231.471 74.7123 233.04 76.2813C234.609 77.8503 235.491 79.9784 235.491 82.1973V93.4995H218.758V82.1973C218.758 79.9784 219.639 77.8503 221.208 76.2813C222.777 74.7123 224.905 73.8308 227.124 73.8308Z" fill="white"/>
<path d="M239.454 123.883C241.673 123.883 243.801 124.765 245.37 126.334C246.939 127.903 247.82 130.031 247.82 132.25V143.552H231.087V132.25C231.087 130.031 231.969 127.903 233.538 126.334C235.107 124.765 237.235 123.883 239.454 123.883Z" fill="white"/>
<path d="M156.669 123.883C158.888 123.883 161.016 124.765 162.585 126.334C164.154 127.903 165.035 130.031 165.035 132.25V143.552H148.302V132.25C148.302 131.151 148.519 130.063 148.939 129.048C149.36 128.033 149.976 127.111 150.753 126.334C151.53 125.557 152.452 124.941 153.467 124.52C154.482 124.1 155.57 123.883 156.669 123.883Z" fill="white"/>
<path d="M292.126 115.911L264.261 103.581C264.111 103.515 263.95 103.481 263.786 103.481H130.986C130.835 103.481 130.684 103.51 130.544 103.567L100.213 115.897C99.9607 115.999 99.7519 116.186 99.6224 116.426C99.4928 116.665 99.4505 116.942 99.5028 117.21C99.555 117.477 99.6985 117.718 99.9088 117.891C100.119 118.064 100.383 118.159 100.655 118.159H108.525V158.67H107.644V162.78H284.662V158.67H283.194V118.159H291.651C291.92 118.159 292.181 118.066 292.39 117.897C292.6 117.727 292.744 117.491 292.8 117.227C292.855 116.964 292.819 116.689 292.696 116.45C292.574 116.21 292.372 116.02 292.126 115.911ZM280.846 158.67H110.873V118.159H280.846V158.67Z" fill="#927F7F"/>
<path d="M175.604 91.5914H154.174V95.1142H175.604V91.5914Z" fill="#CACACA"/>
<path d="M207.015 91.5914H185.585V95.1142H207.015V91.5914Z" fill="#CACACA"/>
<path d="M238.426 91.5914H216.996V95.1142H238.426V91.5914Z" fill="#CACACA"/>
<path d="M250.169 142.378H228.739V145.9H250.169V142.378Z" fill="#CACACA"/>
<path d="M167.09 142.378H145.66V145.9H167.09V142.378Z" fill="#CACACA"/>
<path d="M326.64 162.96H0.359736C0.264328 162.96 0.172828 162.922 0.105364 162.855C0.0379004 162.787 0 162.696 0 162.6C0 162.505 0.0379004 162.414 0.105364 162.346C0.172828 162.279 0.264328 162.241 0.359736 162.241H326.64C326.736 162.241 326.827 162.279 326.895 162.346C326.962 162.414 327 162.505 327 162.6C327 162.696 326.962 162.787 326.895 162.855C326.827 162.922 326.736 162.96 326.64 162.96Z" fill="#3F3D56"/>
<path d="M244.572 62.6586C244.572 62.8889 244.569 63.1227 244.565 63.3529C244.562 63.6299 244.554 63.9033 244.544 64.1803C244.533 64.4214 244.522 64.6588 244.508 64.8962C244.464 65.6912 244.396 66.4827 244.303 67.2777C244.281 67.4791 244.256 67.677 244.227 67.8784C244.205 68.0331 244.184 68.1914 244.159 68.3497C244.133 68.526 244.108 68.7022 244.079 68.8785C244.022 69.2526 243.957 69.6268 243.885 70.0009C243.849 70.1879 243.813 70.375 243.774 70.562C243.698 70.9326 243.615 71.3067 243.529 71.6773C243.522 71.706 243.515 71.7384 243.508 71.7672C243.464 71.9507 243.421 72.1305 243.374 72.314C243.36 72.3679 243.349 72.4183 243.331 72.4723C243.299 72.609 243.263 72.7457 243.227 72.8824C243.177 73.073 243.126 73.26 243.072 73.4507C242.986 73.7457 242.9 74.0371 242.81 74.3321C242.798 74.3627 242.789 74.394 242.781 74.4256C242.608 74.9832 242.425 75.5336 242.223 76.0804C242.119 76.3682 242.008 76.6596 241.896 76.9473C241.784 77.2351 241.669 77.523 241.551 77.8072C241.436 78.0842 241.317 78.3611 241.198 78.6345C241.169 78.6993 241.14 78.764 241.108 78.8288C240.982 79.1129 240.853 79.39 240.72 79.667C240.716 79.6706 240.716 79.6778 240.712 79.6814C240.608 79.9044 240.497 80.1274 240.385 80.3469C240.385 80.3535 240.382 80.3599 240.378 80.3648C240.27 80.5807 240.158 80.7965 240.043 81.0088L239.86 81.3577L239.838 81.3973C239.608 81.8254 239.371 82.2499 239.119 82.6708C239.065 82.7643 239.011 82.8578 238.957 82.9477C238.903 83.0413 238.845 83.1348 238.788 83.2247C238.752 83.2895 238.712 83.3543 238.669 83.419C238.594 83.5413 238.518 83.6672 238.439 83.7895C238.424 83.8147 238.406 83.8399 238.392 83.8651C238.255 84.0773 238.119 84.286 237.982 84.4982C237.813 84.7536 237.64 85.0054 237.464 85.2572L233.557 91.5095L233.388 91.3692L233.341 91.326H233.338L233.183 91.1965L232.759 90.8367C232.629 90.9627 232.503 91.0886 232.374 91.2109C232.323 91.2612 232.269 91.308 232.219 91.3583C232.179 91.3943 232.143 91.4303 232.104 91.4662C225.35 98.062 216.366 101.881 206.93 102.168H206.919C199.776 102.365 192.705 100.696 186.403 97.3263C186.263 97.2544 186.126 97.1824 185.989 97.0997C185.169 96.6536 184.367 96.1824 183.579 95.6787C183.576 95.6751 183.572 95.6751 183.568 95.6715C182.655 95.024 181.762 94.3333 180.892 93.5994C176.222 89.6627 172.527 84.6977 170.097 79.0935C167.667 73.4894 166.569 67.3986 166.887 61.2987C166.898 61.0577 166.913 60.8203 166.931 60.5793C166.988 59.7087 167.077 58.8417 167.197 57.9784C167.229 57.7374 167.265 57.4963 167.301 57.2589H244.205C244.356 58.3597 244.461 59.4665 244.518 60.5793C244.554 61.2737 244.572 61.9644 244.572 62.6586Z" fill="#F0F0F0"/>
<path d="M244.206 57.259C242.821 48.0517 238.179 39.6469 231.122 33.5723C224.066 27.4978 215.064 24.1569 205.753 24.1569C196.443 24.1569 187.441 27.4978 180.384 33.5723C173.328 39.6469 168.686 48.0517 167.301 57.259C167.265 57.4964 167.229 57.7374 167.197 57.9785C167.078 58.8418 166.989 59.7088 166.931 60.5793H244.519C244.461 59.4678 244.357 58.361 244.206 57.259Z" fill="#FFAE00"/>
<path d="M208.272 97.3252H185.991V79.5016C186.402 71.3561 193.364 70.6984 199.906 71.1355C201.005 71.1354 202.093 71.3518 203.108 71.7722C204.123 72.1926 205.045 72.8088 205.822 73.5857C206.599 74.3626 207.215 75.2849 207.636 76.2999C208.056 77.315 208.272 78.4029 208.272 79.5016V97.3252Z" fill="#FFAE00"/>
<path d="M185.989 84.6529V84.6564C185.989 84.66 185.993 84.66 185.997 84.66L185.989 84.6529ZM177.028 57.259C177.014 57.3489 176.996 57.4388 176.982 57.5288C176.996 57.4388 177.014 57.3489 177.032 57.259H177.028ZM176.582 60.5793C176.571 60.716 176.561 60.8527 176.553 60.9894C176.561 60.8527 176.571 60.716 176.586 60.5793C176.585 60.5541 176.586 60.5288 176.589 60.5038C176.586 60.5289 176.586 60.5541 176.582 60.5793ZM185.989 84.6564C185.989 84.66 185.993 84.66 185.997 84.66L185.989 84.6529V84.6564ZM177.028 57.259C177.014 57.3489 176.996 57.4388 176.982 57.5288C176.996 57.4388 177.014 57.3489 177.032 57.259H177.028ZM176.553 60.9894C176.561 60.8527 176.571 60.716 176.586 60.5793C176.585 60.5541 176.586 60.5288 176.589 60.5038C176.586 60.5289 176.586 60.5541 176.582 60.5793C176.571 60.716 176.561 60.8527 176.553 60.9894ZM287.69 127.166C287.62 127.092 287.546 127.023 287.467 126.958L287.464 126.954L269.65 111.921L269.189 111.532L267.437 110.054L266.998 109.683L264.502 107.575L263.818 107L262.405 105.805L261.681 105.194L254.861 99.4416L250.951 96.1428L250.425 95.7003L238.903 85.9767C239.079 85.7249 239.252 85.473 239.421 85.2176C239.558 85.0054 239.694 84.7967 239.831 84.5845C239.845 84.5593 239.863 84.5341 239.878 84.5089C239.957 84.3866 240.032 84.2607 240.108 84.1384C240.151 84.0737 240.191 84.0089 240.227 83.9442C240.284 83.8542 240.342 83.7607 240.396 83.6672C240.45 83.5772 240.504 83.4837 240.558 83.3902C240.81 82.9693 241.047 82.5448 241.277 82.1167L241.299 82.0771L241.482 81.7282C241.597 81.5159 241.709 81.3001 241.817 81.0843C241.821 81.0794 241.824 81.073 241.824 81.0663C241.935 80.8469 242.047 80.6238 242.151 80.4008C242.155 80.3972 242.155 80.39 242.159 80.3864C242.292 80.1094 242.421 79.8324 242.547 79.5482C242.579 79.4835 242.608 79.4187 242.637 79.354C242.756 79.0806 242.874 78.8036 242.99 78.5266C243.108 78.2424 243.223 77.9546 243.335 77.6668C243.446 77.379 243.558 77.0877 243.662 76.7998C243.86 76.2495 244.046 75.6979 244.22 75.1451C244.228 75.1134 244.237 75.0822 244.249 75.0515C244.339 74.7566 244.425 74.4652 244.511 74.1701C244.565 73.9795 244.616 73.7924 244.666 73.6018C244.702 73.4651 244.738 73.3284 244.77 73.1917C244.788 73.1378 244.799 73.0874 244.813 73.0334C244.86 72.85 244.903 72.6701 244.947 72.4866C244.954 72.4578 244.961 72.4255 244.968 72.3967C245.054 72.0262 245.137 71.652 245.213 71.2815C245.252 71.0944 245.288 70.9074 245.324 70.7203C245.393 70.3462 245.461 69.9721 245.518 69.5979C245.547 69.4217 245.572 69.2454 245.598 69.0691C245.623 68.9109 245.644 68.7526 245.666 68.5979C245.695 68.3964 245.72 68.1985 245.742 67.9971C245.835 67.2021 245.903 66.4107 245.947 65.6156C245.961 65.3782 245.972 65.1408 245.982 64.8997C245.993 64.6228 246.001 64.3494 246.004 64.0724C246.008 63.8421 246.011 63.6083 246.011 63.3781C246.011 62.6838 245.993 61.9931 245.957 61.2988C245.9 60.1872 245.795 59.0804 245.644 57.9784C244.355 48.5586 239.72 39.9172 232.584 33.6338C225.449 27.3504 216.291 23.8446 206.784 23.7573C197.277 23.67 188.055 27.007 180.806 33.1583C173.556 39.3096 168.763 47.8644 167.301 57.259C167.265 57.4964 167.229 57.7374 167.197 57.9784C167.078 58.8418 166.989 59.7088 166.931 60.5793C166.913 60.8204 166.898 61.0578 166.887 61.2988C166.569 67.3987 167.667 73.4895 170.097 79.0936C172.527 84.6977 176.222 89.6628 180.892 93.5995C181.762 94.3334 182.655 95.0241 183.568 95.6716C183.572 95.6752 183.576 95.6752 183.579 95.6788C183.885 95.8946 184.191 96.1068 184.5 96.3155C184.993 96.6393 185.489 96.9558 185.989 97.258C186.029 97.2796 186.069 97.3048 186.108 97.3264C186.54 97.5854 186.975 97.8336 187.41 98.0746H187.414C189.034 98.9655 190.716 99.7397 192.447 100.391C197.524 102.302 202.939 103.151 208.358 102.888H208.369C214.693 102.582 220.851 100.76 226.323 97.5746C227.118 97.1141 227.902 96.6213 228.668 96.0961C228.859 95.9666 229.053 95.8334 229.24 95.7004C229.471 95.5385 229.701 95.3694 229.931 95.2003C229.935 95.2003 229.935 95.1967 229.938 95.1967C229.955 95.1824 229.973 95.1692 229.992 95.1572C230.147 95.0384 230.305 94.9197 230.456 94.8046C230.496 94.7758 230.535 94.747 230.575 94.7147C230.585 94.7074 230.595 94.6989 230.604 94.6895C230.694 94.6247 230.78 94.5528 230.87 94.4844C230.96 94.4161 231.046 94.3441 231.136 94.2722C231.151 94.2626 231.166 94.2517 231.179 94.2398C231.28 94.1571 231.381 94.0779 231.482 93.9952C231.586 93.9125 231.687 93.8261 231.784 93.7434C231.884 93.6606 231.982 93.5779 232.082 93.4915C232.169 93.4196 232.259 93.3441 232.345 93.2649C232.374 93.2433 232.399 93.2181 232.428 93.193C232.439 93.1823 232.451 93.1727 232.464 93.1642C232.582 93.0634 232.697 92.9591 232.813 92.8548C232.841 92.8296 232.867 92.8044 232.895 92.7792C233.072 92.6209 233.248 92.4627 233.421 92.2972C233.46 92.2612 233.503 92.2216 233.543 92.1857C233.582 92.1497 233.618 92.1137 233.658 92.0778C233.708 92.0274 233.762 91.9806 233.813 91.9303C233.942 91.808 234.068 91.6821 234.198 91.5562L234.622 91.9159L234.777 92.0454H234.78L234.827 92.0886L234.996 92.2289L237.507 94.3513L237.561 94.398L237.604 94.4305L237.888 94.6714L238.457 95.1535L239.025 95.632L239.108 95.7003L241.752 97.9307L242.119 98.2401L244.67 100.391L257.872 111.532L258.332 111.921L276.402 127.166L281.035 131.077L282.758 132.53C283.124 132.84 283.547 133.074 284.004 133.22C284.46 133.366 284.941 133.42 285.418 133.38C285.896 133.34 286.36 133.206 286.786 132.986C287.212 132.766 287.59 132.465 287.899 132.098C288.158 131.795 288.363 131.449 288.507 131.077C288.768 130.417 288.83 129.694 288.685 128.999C288.54 128.304 288.194 127.667 287.69 127.166ZM183.486 43.776C187.095 39.4993 191.84 36.3308 197.173 34.6366C202.507 32.9424 208.21 32.7916 213.626 34.2016C219.041 35.6116 223.947 38.5249 227.777 42.6049C231.607 46.6849 234.205 51.7653 235.27 57.259C235.316 57.5 235.36 57.7374 235.399 57.9784C235.547 58.8382 235.655 59.7087 235.719 60.5793C235.737 60.8204 235.755 61.0578 235.766 61.2988C235.798 61.8384 235.813 62.3816 235.813 62.9212C235.815 66.1944 235.273 69.4452 234.208 72.5405V72.5441C233.019 76.0148 231.193 79.2331 228.823 82.034C228.773 82.0915 228.722 82.1527 228.668 82.2103C228.194 82.7714 227.694 83.3111 227.179 83.8255C227.176 83.8291 227.172 83.8363 227.168 83.8399C226.992 84.0162 226.812 84.196 226.632 84.3615C226.265 84.7176 225.891 85.0558 225.51 85.3796C224.938 85.8796 224.352 86.3484 223.751 86.7861C223.549 86.9336 223.348 87.0775 223.143 87.2214C222.941 87.3653 222.736 87.502 222.531 87.6387C222.121 87.9121 221.704 88.1747 221.283 88.4229C221.074 88.5488 220.859 88.6711 220.646 88.7898C220.434 88.9121 220.218 89.0272 220.002 89.1388C219.787 89.2539 219.571 89.3654 219.351 89.4733C218.916 89.6928 218.477 89.8978 218.031 90.0885C217.808 90.1892 217.585 90.2827 217.362 90.3691C217.222 90.4266 217.085 90.4842 216.945 90.5346C216.89 90.5599 216.833 90.5815 216.776 90.5993C216.7 90.6317 216.624 90.6605 216.549 90.6857C216.524 90.6968 216.499 90.7064 216.473 90.7144C216.319 90.7756 216.168 90.8296 216.009 90.8835C215.783 90.9663 215.556 91.0418 215.326 91.1138C215.096 91.1893 214.869 91.2612 214.639 91.326C214.408 91.398 214.175 91.4627 213.944 91.5238C213.711 91.5886 213.48 91.6498 213.247 91.7037C212.998 91.7685 212.75 91.826 212.498 91.88C212.279 91.9304 212.063 91.9735 211.844 92.0131C211.638 92.0562 211.43 92.0922 211.225 92.1282C210.937 92.1786 210.649 92.2254 210.358 92.2649C210.2 92.2901 210.045 92.3117 209.887 92.326C209.818 92.3368 209.753 92.344 209.689 92.3513C209.487 92.3801 209.286 92.4016 209.088 92.4196C209.034 92.4232 208.984 92.4304 208.933 92.434C208.714 92.4556 208.491 92.4736 208.271 92.4915C207.8 92.5239 207.332 92.5455 206.861 92.5563C206.624 92.5599 206.383 92.5635 206.145 92.5635C205.908 92.5635 205.67 92.5599 205.433 92.5527C205.433 92.5527 205.433 92.5563 205.429 92.5527C205.426 92.5563 205.426 92.5563 205.422 92.5527C205.422 92.5532 205.421 92.5536 205.421 92.5538C205.42 92.5541 205.419 92.5542 205.419 92.5542C205.418 92.5542 205.417 92.5541 205.417 92.5538C205.416 92.5536 205.416 92.5532 205.415 92.5527C205.403 92.5563 205.391 92.5563 205.379 92.5527C205.21 92.5527 205.041 92.5455 204.875 92.5347C204.753 92.5311 204.627 92.5275 204.501 92.5167C204.332 92.5095 204.163 92.4987 203.994 92.4843C203.94 92.4843 203.886 92.4772 203.832 92.4736C203.807 92.473 203.782 92.4706 203.757 92.4664C203.584 92.452 203.408 92.4376 203.235 92.4196C203.149 92.4124 203.059 92.4052 202.972 92.3944C202.71 92.3656 202.447 92.3332 202.188 92.2973C201.893 92.2613 201.598 92.2181 201.307 92.1642C201.17 92.1462 201.037 92.121 200.904 92.0958C200.728 92.067 200.552 92.0347 200.375 91.9987C200.192 91.9628 200.008 91.9268 199.825 91.8836C199.677 91.8512 199.526 91.8188 199.379 91.7829C199.307 91.7685 199.235 91.7505 199.166 91.7325C198.789 91.6426 198.415 91.5455 198.044 91.4375C197.81 91.3728 197.576 91.3045 197.346 91.2325C197.03 91.1354 196.717 91.0311 196.404 90.9195C196.281 90.8799 196.163 90.8368 196.04 90.79C195.918 90.7504 195.799 90.7037 195.677 90.6569C195.566 90.6173 195.454 90.5742 195.346 90.531C195.166 90.4626 194.99 90.3907 194.814 90.3188C194.45 90.1712 194.094 90.0166 193.738 89.8511C193.537 89.754 193.335 89.6605 193.137 89.5633C192.357 89.1856 191.588 88.7659 190.831 88.3043C190.644 88.1927 190.457 88.074 190.27 87.9553C190.036 87.8114 189.81 87.6603 189.583 87.5092C189.457 87.4229 189.335 87.3402 189.213 87.2538C188.986 87.0955 188.763 86.9336 188.543 86.7717C188.428 86.689 188.313 86.6027 188.202 86.5163C187.802 86.2141 187.41 85.8976 187.025 85.5738C186.842 85.4191 186.658 85.2609 186.479 85.099C186.403 85.0342 186.327 84.9659 186.252 84.8975C186.166 84.8184 186.079 84.7429 185.996 84.6601L185.989 84.6529C185.863 84.5414 185.737 84.4227 185.615 84.304C185.425 84.1241 185.237 83.9406 185.058 83.7536C184.871 83.5701 184.691 83.3795 184.514 83.1924C184.335 83.0053 184.162 82.8147 183.993 82.6204C183.82 82.4297 183.651 82.2355 183.486 82.0377C183.324 81.8506 183.165 81.6563 183.014 81.4656C182.647 81.0124 182.297 80.5507 181.964 80.0807C181.809 79.8648 181.662 79.6489 181.518 79.4296C181.363 79.2065 181.216 78.9799 181.075 78.7532C180.928 78.5266 180.788 78.2963 180.651 78.0625C180.647 78.0546 180.642 78.0473 180.636 78.0409C180.367 77.5841 180.108 77.1236 179.867 76.656C179.618 76.1811 179.385 75.7015 179.165 75.217C179.054 74.976 178.946 74.7314 178.845 74.4868C178.636 73.9939 178.442 73.5011 178.262 73.001C178.172 72.76 178.089 72.519 178.007 72.2743C178.004 72.2582 177.999 72.2425 177.992 72.2276C177.827 71.7311 177.676 71.2312 177.543 70.7275C177.539 70.7203 177.539 70.7132 177.535 70.706C177.467 70.4577 177.402 70.2095 177.345 69.9577C177.287 69.7383 177.237 69.5188 177.19 69.2958C177.136 69.0475 177.082 68.7993 177.035 68.5475C177.01 68.418 176.985 68.2885 176.964 68.159C176.942 68.0511 176.924 67.9396 176.906 67.8317C176.888 67.7238 176.87 67.6122 176.852 67.5007C176.816 67.2813 176.784 67.0618 176.755 66.8424C176.719 66.5834 176.69 66.3244 176.661 66.0617C176.629 65.7488 176.6 65.4358 176.575 65.1192C176.557 64.907 176.546 64.6911 176.535 64.4753C176.525 64.2775 176.514 64.0796 176.51 63.8817C176.507 63.8713 176.507 63.8599 176.51 63.8494C176.51 63.8489 176.509 63.8484 176.509 63.8477C176.509 63.8471 176.509 63.8465 176.509 63.8458C176.509 63.8451 176.509 63.8444 176.509 63.8438C176.509 63.8432 176.51 63.8426 176.51 63.8422C176.507 63.8386 176.507 63.8386 176.51 63.835C176.51 63.8345 176.509 63.834 176.509 63.8333C176.509 63.8327 176.509 63.8321 176.509 63.8314C176.509 63.8307 176.509 63.8301 176.509 63.8294C176.509 63.8288 176.51 63.8283 176.51 63.8278C176.507 63.7486 176.503 63.6695 176.503 63.5904C176.496 63.3566 176.492 63.1227 176.492 62.8889C176.492 62.6766 176.496 62.468 176.499 62.2558C176.507 61.9608 176.517 61.6658 176.532 61.3708C176.532 61.306 176.539 61.2449 176.543 61.1801C176.546 61.1154 176.55 61.0542 176.553 60.9895C176.561 60.8528 176.571 60.7161 176.586 60.5794C176.585 60.5541 176.586 60.5289 176.589 60.5038C176.6 60.3491 176.615 60.1945 176.629 60.0398C176.658 59.7304 176.694 59.4174 176.733 59.1081C176.755 58.9534 176.773 58.7987 176.798 58.644C176.812 58.5361 176.83 58.4246 176.848 58.313C176.863 58.2015 176.881 58.09 176.902 57.9785C176.928 57.831 176.953 57.6799 176.981 57.5288C176.996 57.4389 177.014 57.349 177.032 57.259C177.1 56.8993 177.176 56.5395 177.258 56.1798C177.341 55.8165 177.435 55.4567 177.535 55.097C177.633 54.7337 177.741 54.3703 177.856 54.007C177.91 53.8235 177.967 53.6437 178.032 53.4638C178.151 53.1005 178.277 52.7407 178.417 52.3846C178.482 52.2083 178.55 52.0285 178.625 51.8522C178.769 51.496 178.92 51.1399 179.075 50.791C179.154 50.6147 179.233 50.4384 179.32 50.2622C179.482 49.9132 179.651 49.5643 179.834 49.2225C180.01 48.8736 180.201 48.5318 180.395 48.1937C180.59 47.8555 180.791 47.5174 181.003 47.1828C181.1 47.0173 181.208 46.8483 181.32 46.6864C181.536 46.3554 181.762 46.0245 181.993 45.7007C182.457 45.0459 182.957 44.402 183.486 43.776ZM176.582 60.5793C176.571 60.716 176.561 60.8527 176.553 60.9894C176.561 60.8527 176.571 60.716 176.586 60.5793C176.585 60.5541 176.586 60.5288 176.589 60.5038C176.586 60.5289 176.586 60.5541 176.582 60.5793ZM177.028 57.259C177.014 57.3489 176.996 57.4388 176.982 57.5288C176.996 57.4388 177.014 57.3489 177.032 57.259H177.028ZM185.989 84.6529V84.6564C185.989 84.66 185.993 84.66 185.997 84.66L185.989 84.6529Z" fill="#3F3D56"/>
<path opacity="0.3" d="M187.026 85.5736C181.336 80.7719 177.66 74.0059 176.727 66.6192C175.795 59.2326 177.674 51.7653 181.993 45.7003C181.426 46.2714 180.877 46.8696 180.348 47.4947C177.836 50.4716 175.935 53.9141 174.754 57.6257C173.572 61.3372 173.133 65.2451 173.462 69.1263C173.791 73.0074 174.881 76.7858 176.67 80.2457C178.459 83.7056 180.912 86.7792 183.889 89.2911C189.901 94.3641 197.682 96.841 205.52 96.1769C213.359 95.5129 220.612 91.7623 225.685 85.7502C226.213 85.1242 226.711 84.4832 227.177 83.827C221.925 89.1041 214.881 92.2132 207.442 92.5367C200.004 92.8603 192.716 90.3747 187.026 85.5736Z" fill="black"/>
</g>
<defs>
<filter id="filter0_f_27_354" x="6" y="-29" width="300" height="210" filterUnits="userSpaceOnUse" color-interpolation-filters="sRGB">
<feFlood flood-opacity="0" result="BackgroundImageFix"/>
<feBlend mode="normal" in="SourceGraphic" in2="BackgroundImageFix" result="shape"/>
<feGaussianBlur stdDeviation="20" result="effect1_foregroundBlur_27_354"/>
</filter>
<linearGradient id="paint0_linear_27_354" x1="156" y1="11" x2="156" y2="141" gradientUnits="userSpaceOnUse">
<stop offset="0.0343749" stop-color="#CB356B" stop-opacity="0.1"/>
<stop offset="0.622917" stop-color="#CB356B"/>
<stop offset="1" stop-color="#CB356B" stop-opacity="0.1"/>
</linearGradient>
<clipPath id="clip0_27_354">
<rect width="327" height="162.96" fill="white"/>
</clipPath>
</defs>
</svg>
