<svg width="265" height="161" viewBox="0 0 265 161" fill="none" xmlns="http://www.w3.org/2000/svg">
<g clip-path="url(#clip0_27_382)">
<path d="M264.832 125.389C264.838 126.457 264.419 127.483 263.668 128.242C262.917 129.001 261.895 129.431 260.827 129.437H84.5904C84.0616 129.434 83.5385 129.327 83.0511 129.122C82.5636 128.917 82.1213 128.618 81.7493 128.242C81.3774 127.867 81.0831 127.421 80.8833 126.932C80.6834 126.442 80.582 125.918 80.5848 125.389V5.00806C80.5792 3.94015 80.9981 2.91376 81.7492 2.15469C82.5004 1.39562 83.5224 0.966034 84.5903 0.960449H260.827C261.355 0.9632 261.878 1.07007 262.366 1.27497C262.853 1.47986 263.296 1.77877 263.668 2.15461C264.04 2.53046 264.334 2.97589 264.534 3.46546C264.734 3.95504 264.835 4.47918 264.832 5.00795V5.00806V125.389Z" fill="#EAE8E8"/>
<path d="M262.753 123.418C262.753 124.456 262.341 125.451 261.607 126.185C260.873 126.919 259.878 127.331 258.84 127.331H86.6982C85.6602 127.331 84.6647 126.919 83.9307 126.185C83.1968 125.451 82.7844 124.456 82.7844 123.418V7.03446C82.7844 5.99647 83.1968 5.001 83.9307 4.26703C84.6647 3.53307 85.6602 3.12073 86.6982 3.12073H258.847C259.884 3.12281 260.878 3.53607 261.61 4.26981C262.342 5.00356 262.753 5.99784 262.753 7.03446V123.418Z" fill="white"/>
<path d="M91.9847 8.17371H253.737C254.353 8.17371 254.944 8.41845 255.379 8.85411C255.815 9.28977 256.06 9.88064 256.06 10.4967V119.504C256.06 120.12 255.815 120.711 255.379 121.147C254.944 121.582 254.353 121.827 253.737 121.827H91.9847C91.3686 121.827 90.7777 121.582 90.342 121.147C89.9064 120.711 89.6616 120.12 89.6616 119.504V10.4967C89.6616 9.88064 89.9064 9.28977 90.342 8.85411C90.7777 8.41845 91.3686 8.17371 91.9847 8.17371Z" fill="#E6E6E6"/>
<path d="M94.0322 10.7881H251.513C252.13 10.7881 252.72 11.0328 253.156 11.4685C253.592 11.9041 253.837 12.495 253.837 13.1111V116.301C253.837 116.918 253.592 117.508 253.156 117.944C252.72 118.38 252.13 118.625 251.513 118.625H94.0322C93.416 118.625 92.8252 118.38 92.3895 117.944C91.9539 117.508 91.7091 116.918 91.7091 116.301V13.1111C91.7091 12.495 91.9539 11.9041 92.3895 11.4685C92.8252 11.0328 93.416 10.7881 94.0322 10.7881Z" fill="white"/>
<path d="M205.225 82.4724C204.605 82.472 203.992 82.3414 203.426 82.0891C203.294 82.0307 203.169 81.9593 203.051 81.876L191.606 73.8198C191.025 73.4112 190.552 72.869 190.225 72.239C189.898 71.6091 189.727 70.9097 189.727 70.1999V59.2128C189.727 58.503 189.898 57.8036 190.225 57.1736C190.552 56.5436 191.025 56.0015 191.606 55.5929L203.051 47.5366C203.169 47.4534 203.294 47.382 203.426 47.3235C204.1 47.0238 204.838 46.8973 205.574 46.9554C206.309 47.0136 207.019 47.2547 207.637 47.6567C208.256 48.0586 208.765 48.6089 209.116 49.2573C209.468 49.9057 209.653 50.6318 209.653 51.3696V78.043C209.653 79.2174 209.186 80.3437 208.356 81.1741C207.525 82.0045 206.399 82.471 205.225 82.471L205.225 82.4724Z" fill="#3F3D56"/>
<path d="M179.611 84.6325H147.69C141.177 84.6271 135.9 80.4174 135.893 75.2229V54.1897C135.9 48.9952 141.177 44.7855 147.69 44.7802H179.694C186.16 44.7863 191.4 48.9658 191.408 54.1233V75.2229C191.401 80.4174 186.123 84.6271 179.611 84.6325Z" fill="#3F3D56"/>
<path d="M236.473 111.989C241.716 111.989 245.966 107.739 245.966 102.496C245.966 97.2524 241.716 93.002 236.473 93.002C231.229 93.002 226.979 97.2524 226.979 102.496C226.979 107.739 231.229 111.989 236.473 111.989Z" fill="#665050"/>
<path d="M241.404 102.325L233.836 97.9563C233.806 97.939 233.772 97.9299 233.738 97.9299C233.703 97.9299 233.67 97.939 233.64 97.9563C233.61 97.9735 233.585 97.9983 233.568 98.0282C233.55 98.0581 233.541 98.0919 233.541 98.1264V106.865C233.541 106.899 233.55 106.933 233.568 106.963C233.585 106.993 233.61 107.017 233.64 107.035C233.67 107.052 233.703 107.061 233.738 107.061C233.772 107.061 233.806 107.052 233.836 107.035L241.404 102.666C241.433 102.648 241.458 102.624 241.475 102.594C241.493 102.564 241.502 102.53 241.502 102.495C241.502 102.461 241.493 102.427 241.475 102.397C241.458 102.367 241.433 102.343 241.404 102.325L233.836 97.9563C233.806 97.939 233.772 97.9299 233.738 97.9299C233.703 97.9299 233.67 97.939 233.64 97.9563C233.61 97.9735 233.585 97.9983 233.568 98.0282C233.55 98.0581 233.541 98.0919 233.541 98.1264V106.865C233.541 106.899 233.55 106.933 233.568 106.963C233.585 106.993 233.61 107.017 233.64 107.035C233.67 107.052 233.703 107.061 233.738 107.061C233.772 107.061 233.806 107.052 233.836 107.035L241.404 102.666C241.433 102.648 241.458 102.624 241.475 102.594C241.493 102.564 241.502 102.53 241.502 102.495C241.502 102.461 241.493 102.427 241.475 102.397C241.458 102.367 241.433 102.343 241.404 102.325Z" fill="white"/>
<path d="M224.146 139.826C224.152 140.894 223.733 141.92 222.982 142.679C222.231 143.438 221.209 143.868 220.141 143.874H43.9043C43.3756 143.871 42.8525 143.764 42.365 143.559C41.8776 143.354 41.4352 143.055 41.0633 142.679C40.6913 142.304 40.397 141.858 40.1972 141.369C39.9974 140.879 39.896 140.355 39.8987 139.826V19.4451C39.8932 18.3772 40.312 17.3508 41.0632 16.5917C41.8144 15.8326 42.8363 15.403 43.9042 15.3975H220.141C220.669 15.4002 221.192 15.5071 221.68 15.712C222.167 15.9169 222.61 16.2158 222.982 16.5916C223.354 16.9675 223.648 17.4129 223.848 17.9025C224.048 18.3921 224.149 18.9162 224.146 19.445V19.4451V139.826Z" fill="#E6E6E6"/>
<path d="M222.067 137.855C222.067 138.893 221.655 139.888 220.921 140.622C220.187 141.356 219.192 141.768 218.154 141.768H46.0121C44.9741 141.768 43.9787 141.356 43.2447 140.622C42.5107 139.888 42.0984 138.893 42.0984 137.855V21.4715C42.0984 20.4335 42.5107 19.438 43.2447 18.704C43.9787 17.9701 44.9741 17.5577 46.0121 17.5577H218.161C219.198 17.5598 220.192 17.9731 220.924 18.7068C221.656 19.4406 222.067 20.4348 222.067 21.4715V137.855Z" fill="white"/>
<path d="M51.2986 22.6107H213.051C213.667 22.6107 214.258 22.8555 214.693 23.2911C215.129 23.7268 215.374 24.3177 215.374 24.9338V133.941C215.374 134.557 215.129 135.148 214.693 135.584C214.258 136.019 213.667 136.264 213.051 136.264H51.2986C50.6825 136.264 50.0916 136.019 49.656 135.584C49.2203 135.148 48.9756 134.557 48.9756 133.941V24.9338C48.9756 24.3177 49.2203 23.7268 49.656 23.2911C50.0916 22.8555 50.6825 22.6107 51.2986 22.6107Z" fill="#E6E6E6"/>
<path d="M53.3461 25.2251H210.827C211.444 25.2251 212.034 25.4698 212.47 25.9055C212.906 26.3412 213.15 26.932 213.15 27.5481V130.739C213.15 131.355 212.906 131.945 212.47 132.381C212.034 132.817 211.444 133.062 210.827 133.062H53.3461C52.73 133.062 52.1391 132.817 51.7035 132.381C51.2678 131.945 51.0231 131.355 51.0231 130.739V27.5481C51.0231 26.932 51.2678 26.3412 51.7035 25.9055C52.1391 25.4698 52.73 25.2251 53.3461 25.2251Z" fill="white"/>
<path d="M164.539 96.9094C163.919 96.909 163.306 96.7784 162.74 96.5261C162.608 96.4677 162.482 96.3963 162.365 96.313L150.92 88.2568C150.339 87.8482 149.866 87.3061 149.539 86.6761C149.211 86.0461 149.041 85.3467 149.041 84.6369V73.6498C149.041 72.94 149.211 72.2406 149.538 71.6106C149.866 70.9806 150.339 70.4385 150.92 70.0299L162.365 61.9736C162.482 61.8904 162.608 61.819 162.74 61.7605C163.414 61.4608 164.152 61.3343 164.888 61.3925C165.623 61.4506 166.333 61.6917 166.951 62.0937C167.57 62.4957 168.078 63.0459 168.43 63.6943C168.782 64.3427 168.967 65.0689 168.967 65.8067V92.48C168.967 93.6544 168.5 94.7807 167.67 95.6111C166.839 96.4415 165.713 96.9081 164.539 96.9081L164.539 96.9094Z" fill="#3F3D56"/>
<path d="M138.925 99.0695H107.004C100.491 99.0641 95.2135 94.8544 95.2068 89.6599V68.6267C95.2135 63.4322 100.491 59.2225 107.004 59.2172H139.008C145.474 59.2233 150.714 63.4028 150.721 68.5603V89.6599C150.715 94.8544 145.437 99.0641 138.925 99.0695Z" fill="#3F3D56"/>
<path d="M195.787 126.426C201.03 126.426 205.28 122.176 205.28 116.933C205.28 111.689 201.03 107.439 195.787 107.439C190.543 107.439 186.293 111.689 186.293 116.933C186.293 122.176 190.543 126.426 195.787 126.426Z" fill="#665050"/>
<path d="M200.718 116.762L193.15 112.393C193.12 112.376 193.086 112.367 193.052 112.367C193.017 112.367 192.983 112.376 192.954 112.393C192.924 112.411 192.899 112.435 192.882 112.465C192.864 112.495 192.855 112.529 192.855 112.563V121.302C192.855 121.336 192.864 121.37 192.882 121.4C192.899 121.43 192.924 121.454 192.954 121.472C192.983 121.489 193.017 121.498 193.052 121.498C193.086 121.498 193.12 121.489 193.15 121.472L200.718 117.103C200.747 117.085 200.772 117.061 200.789 117.031C200.807 117.001 200.816 116.967 200.816 116.932C200.816 116.898 200.807 116.864 200.789 116.834C200.772 116.804 200.747 116.78 200.718 116.762L193.15 112.393C193.12 112.376 193.086 112.367 193.052 112.367C193.017 112.367 192.983 112.376 192.954 112.393C192.924 112.411 192.899 112.435 192.882 112.465C192.864 112.495 192.855 112.529 192.855 112.563V121.302C192.855 121.336 192.864 121.37 192.882 121.4C192.899 121.43 192.924 121.454 192.954 121.472C192.983 121.489 193.017 121.498 193.052 121.498C193.086 121.498 193.12 121.489 193.15 121.472L200.718 117.103C200.747 117.085 200.772 117.061 200.789 117.031C200.807 117.001 200.816 116.967 200.816 116.932C200.816 116.898 200.807 116.864 200.789 116.834C200.772 116.804 200.747 116.78 200.718 116.762Z" fill="white"/>
<path d="M184.248 156.363C184.253 157.431 183.834 158.457 183.083 159.216C182.332 159.975 181.31 160.405 180.242 160.41H4.00566C3.47689 160.408 2.95383 160.301 2.46636 160.096C1.97889 159.891 1.53655 159.592 1.16459 159.216C0.792636 158.84 0.498351 158.395 0.298539 157.905C0.0987279 157.416 -0.0026966 156.892 5.51217e-05 156.363V35.9819C-0.00552883 34.914 0.413339 33.8876 1.16452 33.1286C1.91569 32.3695 2.93764 31.9399 4.00555 31.9343H180.242C180.771 31.9371 181.294 32.044 181.781 32.2488C182.269 32.4537 182.711 32.7526 183.083 33.1285C183.455 33.5043 183.749 33.9498 183.949 34.4393C184.149 34.9289 184.25 35.4531 184.248 35.9818V35.9819V156.363Z" fill="#9B8585"/>
<path d="M182.169 154.391C182.169 155.429 181.756 156.425 181.022 157.159C180.288 157.893 179.293 158.305 178.255 158.305H6.11357C5.07558 158.305 4.08011 157.893 3.34614 157.159C2.61217 156.425 2.19983 155.429 2.19983 154.391V38.0083C2.19983 36.9704 2.61217 35.9749 3.34614 35.2409C4.08011 34.5069 5.07558 34.0946 6.11357 34.0946H178.263C179.299 34.0967 180.293 34.5099 181.025 35.2437C181.757 35.9774 182.169 36.9717 182.169 38.0083V154.391Z" fill="white"/>
<path d="M11.4001 39.1476H173.152C173.768 39.1476 174.359 39.3923 174.795 39.828C175.23 40.2636 175.475 40.8545 175.475 41.4706V150.478C175.475 151.094 175.23 151.685 174.795 152.12C174.359 152.556 173.768 152.801 173.152 152.801H11.4001C10.784 152.801 10.1931 152.556 9.75743 152.12C9.32178 151.685 9.07703 151.094 9.07703 150.478V41.4706C9.07703 40.8545 9.32178 40.2636 9.75743 39.828C10.1931 39.3923 10.784 39.1476 11.4001 39.1476Z" fill="#9B8585"/>
<path d="M13.4476 41.762H170.929C171.234 41.762 171.536 41.822 171.818 41.9388C172.1 42.0555 172.356 42.2267 172.572 42.4424C172.787 42.6581 172.958 42.9142 173.075 43.196C173.192 43.4779 173.252 43.7799 173.252 44.085V147.275C173.252 147.58 173.192 147.883 173.075 148.164C172.958 148.446 172.787 148.702 172.572 148.918C172.356 149.134 172.1 149.305 171.818 149.422C171.536 149.538 171.234 149.598 170.929 149.598H13.4476C12.8314 149.598 12.2406 149.354 11.8049 148.918C11.3693 148.482 11.1245 147.891 11.1245 147.275V44.085C11.1245 43.4689 11.3693 42.878 11.8049 42.4424C12.2406 42.0067 12.8314 41.762 13.4476 41.762Z" fill="white"/>
<path d="M124.64 113.446C124.02 113.446 123.407 113.315 122.841 113.063C122.709 113.005 122.584 112.933 122.466 112.85L111.021 104.794C110.441 104.385 109.967 103.843 109.64 103.213C109.313 102.583 109.142 101.884 109.142 101.174V90.1867C109.142 89.4768 109.313 88.7775 109.64 88.1475C109.967 87.5175 110.441 86.9753 111.021 86.5668L122.466 78.5105C122.584 78.4273 122.709 78.3559 122.841 78.2974C123.515 77.9977 124.254 77.8711 124.989 77.9293C125.725 77.9875 126.434 78.2285 127.053 78.6305C127.671 79.0325 128.18 79.5827 128.532 80.2312C128.884 80.8796 129.068 81.6057 129.068 82.3435V109.017C129.068 110.191 128.602 111.318 127.771 112.148C126.941 112.978 125.814 113.445 124.64 113.445L124.64 113.446Z" fill="#FFAE00"/>
<path d="M99.026 115.606H67.1051C60.5926 115.601 55.3149 111.391 55.3082 106.197V85.1637C55.3149 79.9692 60.5926 75.7595 67.1051 75.7542H99.1093C105.575 75.7603 110.815 79.9398 110.823 85.0973V106.197C110.816 111.391 105.538 115.601 99.026 115.606Z" fill="#FFAE00"/>
<path d="M155.888 142.963C161.131 142.963 165.381 138.713 165.381 133.469C165.381 128.226 161.131 123.976 155.888 123.976C150.645 123.976 146.394 128.226 146.394 133.469C146.394 138.713 150.645 142.963 155.888 142.963Z" fill="#3F3D56"/>
<path d="M160.819 133.299L153.252 128.93C153.222 128.913 153.188 128.904 153.153 128.904C153.119 128.904 153.085 128.913 153.055 128.93C153.025 128.947 153 128.972 152.983 129.002C152.966 129.032 152.957 129.066 152.957 129.1V137.838C152.957 137.873 152.966 137.907 152.983 137.937C153 137.967 153.025 137.991 153.055 138.009C153.085 138.026 153.119 138.035 153.153 138.035C153.188 138.035 153.222 138.026 153.252 138.009L160.819 133.64C160.849 133.622 160.874 133.597 160.891 133.568C160.908 133.538 160.917 133.504 160.917 133.469C160.917 133.435 160.908 133.401 160.891 133.371C160.874 133.341 160.849 133.316 160.819 133.299L153.252 128.93C153.222 128.913 153.188 128.904 153.153 128.904C153.119 128.904 153.085 128.913 153.055 128.93C153.025 128.947 153 128.972 152.983 129.002C152.966 129.032 152.957 129.066 152.957 129.1V137.838C152.957 137.873 152.966 137.907 152.983 137.937C153 137.967 153.025 137.991 153.055 138.009C153.085 138.026 153.119 138.035 153.153 138.035C153.188 138.035 153.222 138.026 153.252 138.009L160.819 133.64C160.849 133.622 160.874 133.597 160.891 133.568C160.908 133.538 160.917 133.504 160.917 133.469C160.917 133.435 160.908 133.401 160.891 133.371C160.874 133.341 160.849 133.316 160.819 133.299Z" fill="white"/>
</g>
<defs>
<clipPath id="clip0_27_382">
<rect width="264.832" height="159.45" fill="white" transform="translate(0 0.960449)"/>
</clipPath>
</defs>
</svg>
