<svg width="189" height="147" viewBox="0 0 189 147" fill="none" xmlns="http://www.w3.org/2000/svg">
<g clip-path="url(#clip0_26_281)">
<g filter="url(#filter0_f_26_281)">
<rect width="86" height="84" transform="matrix(-1 0 0 1 145 35)" fill="url(#paint0_linear_26_281)" fill-opacity="0.3"/>
</g>
<path d="M136.713 95.4296L112.29 82.8379C111.922 82.6475 111.644 82.3189 111.518 81.924C111.392 81.5291 111.427 81.1003 111.617 80.7317L113.128 77.8015C113.318 77.4332 113.647 77.1555 114.042 77.0293C114.436 76.9031 114.865 76.9386 115.234 77.1282L139.657 89.7199C140.025 89.9103 140.303 90.2389 140.429 90.6338C140.555 91.0287 140.519 91.4574 140.33 91.8261L138.819 94.7563C138.725 94.9391 138.596 95.1014 138.44 95.234C138.283 95.3665 138.101 95.4666 137.905 95.5285C137.75 95.5782 137.589 95.6036 137.426 95.6038C137.178 95.6036 136.933 95.5438 136.713 95.4296Z" fill="#FFAE00"/>
<path d="M129.267 83.6505C129.46 83.5754 129.666 83.5394 129.873 83.5448C130.079 83.5502 130.283 83.5969 130.472 83.682L138.475 88.1074C139.351 88.5912 140.008 89.393 140.309 90.3472C140.611 91.3013 140.534 92.3348 140.096 93.2341L139.995 93.1853L140.096 93.2342C139.676 94.0936 138.957 94.7693 138.072 95.1334C137.188 95.4974 136.201 95.5244 135.298 95.2092L126.619 92.1754C126.431 92.0924 126.261 91.9732 126.119 91.8246C125.977 91.676 125.866 91.5008 125.792 91.3092C125.718 91.1176 125.682 90.9132 125.687 90.7078C125.692 90.5024 125.737 90.3 125.82 90.1122L128.401 84.4764C128.446 84.3744 128.502 84.2775 128.567 84.1872C128.744 83.9445 128.987 83.7581 129.267 83.6505Z" fill="#2F2E41"/>
<path d="M147.682 82.2986C154.285 82.2986 159.637 76.9463 159.637 70.344C159.637 63.7417 154.285 58.3894 147.682 58.3894C141.08 58.3894 135.728 63.7417 135.728 70.344C135.728 76.9463 141.08 82.2986 147.682 82.2986Z" fill="#FFAE00"/>
<path d="M146.215 144.692V117.214C146.216 116.8 146.381 116.402 146.674 116.109C146.967 115.816 147.364 115.651 147.779 115.651H151.076C151.49 115.651 151.888 115.816 152.181 116.109C152.474 116.402 152.639 116.8 152.639 117.214V144.692C152.639 145.106 152.474 145.504 152.181 145.797C151.888 146.09 151.49 146.255 151.076 146.255H147.779C147.364 146.255 146.967 146.09 146.674 145.797C146.381 145.504 146.216 145.106 146.215 144.692Z" fill="#FFAE00"/>
<path d="M139.068 144.692V117.214C139.068 116.8 139.233 116.402 139.526 116.109C139.819 115.816 140.217 115.651 140.631 115.651H143.928C144.342 115.651 144.74 115.816 145.033 116.109C145.326 116.402 145.491 116.8 145.491 117.214V144.692C145.491 145.106 145.326 145.504 145.033 145.797C144.74 146.09 144.342 146.255 143.928 146.255H140.631C140.217 146.255 139.819 146.09 139.526 145.797C139.233 145.504 139.068 145.106 139.068 144.692Z" fill="#FFAE00"/>
<path d="M147.933 74.7747L147.946 74.328C147.115 74.3049 146.382 74.2527 145.831 73.8505C145.675 73.73 145.547 73.5772 145.455 73.4027C145.364 73.2282 145.31 73.0359 145.3 72.839C145.29 72.7187 145.308 72.5978 145.353 72.4856C145.397 72.3735 145.467 72.2732 145.557 72.1925C145.923 71.8838 146.511 71.9837 146.939 72.1802L147.309 72.3497L146.6 67.1697L146.157 67.2303L146.76 71.6366C146.178 71.4654 145.638 71.5391 145.269 71.8513C145.127 71.9752 145.015 72.1302 144.943 72.3043C144.871 72.4784 144.84 72.6667 144.853 72.8547C144.866 73.1193 144.937 73.3778 145.06 73.6121C145.184 73.8465 145.357 74.051 145.568 74.2113C146.275 74.7283 147.195 74.754 147.933 74.7747Z" fill="#2F2E41"/>
<path d="M143.969 67.6102H141.562V68.057H143.969V67.6102Z" fill="#2F2E41"/>
<path d="M151.563 67.6102H149.157V68.057H151.563V67.6102Z" fill="#2F2E41"/>
<path d="M159.122 121.761L154.987 94.5962C154.925 94.1863 155.028 93.7686 155.274 93.4347C155.52 93.1008 155.888 92.878 156.298 92.8152L159.557 92.3191C159.967 92.2572 160.385 92.3604 160.718 92.6061C161.052 92.8518 161.275 93.2199 161.338 93.6296L165.473 120.794C165.535 121.204 165.431 121.622 165.186 121.956C164.94 122.29 164.572 122.513 164.162 122.575L160.903 123.071C160.7 123.102 160.493 123.093 160.293 123.044C160.094 122.995 159.906 122.907 159.741 122.785C159.575 122.664 159.435 122.511 159.329 122.335C159.223 122.159 159.153 121.964 159.122 121.761V121.761Z" fill="#FFAE00"/>
<path d="M155.926 104.325C155.752 104.213 155.602 104.068 155.485 103.897C155.368 103.727 155.286 103.534 155.244 103.332L154.123 94.2552C154 93.2622 154.263 92.2598 154.858 91.4553C155.453 90.6507 156.334 90.1054 157.32 89.9321L157.339 90.042L157.32 89.932C158.261 89.7663 159.231 89.9519 160.045 90.4535C160.859 90.9551 161.461 91.7379 161.736 92.6536L164.381 101.46C164.424 101.661 164.427 101.868 164.391 102.07C164.354 102.272 164.277 102.465 164.166 102.638C164.054 102.81 163.91 102.959 163.741 103.076C163.572 103.193 163.381 103.275 163.18 103.318L157.103 104.541C156.995 104.564 156.883 104.576 156.772 104.576C156.472 104.576 156.178 104.489 155.926 104.325Z" fill="#2F2E41"/>
<path d="M156.247 123.96H124.3C123.976 123.96 123.658 123.877 123.375 123.719C123.092 123.561 122.854 123.333 122.684 123.058C122.514 122.782 122.418 122.467 122.404 122.143C122.389 121.82 122.459 121.498 122.604 121.208L138.05 90.4923C139.123 88.3581 140.885 86.6483 143.05 85.6396C145.216 84.6308 147.658 84.3821 149.983 84.9336C152.307 85.4851 154.377 86.8046 155.859 88.6786C157.34 90.5527 158.146 92.8717 158.146 95.2605V122.061C158.145 122.565 157.945 123.047 157.589 123.403C157.233 123.759 156.751 123.959 156.247 123.96Z" fill="#2F2E41"/>
<path d="M148.106 60.4811C145.659 61.0275 143.594 62.6225 141.134 63.1185C140.013 63.3444 138.778 63.3352 137.748 62.7833C136.985 62.3691 136.402 61.6884 136.11 60.8714C135.82 60.0357 135.746 59.1407 135.893 58.2687C136.04 57.3967 136.404 56.5756 136.951 55.881C138.332 54.1902 140.535 53.4111 142.647 53.1915C146.876 52.752 151.219 54.1454 154.661 56.5726C158.215 59.0788 160.941 62.8421 161.855 67.1249C162.344 69.4144 162.296 71.8498 161.461 74.0545C160.658 76.1641 159.078 77.8862 157.045 78.8669C156.56 79.1011 156.054 79.2895 155.534 79.4296C155.451 79.4556 155.382 79.5128 155.34 79.5892C155.298 79.6655 155.288 79.755 155.311 79.8388C155.334 79.9226 155.389 79.9941 155.464 80.0383C155.539 80.0826 155.628 80.096 155.712 80.0758C157.998 79.4516 159.97 77.9995 161.245 76.0018C162.554 73.9077 162.993 71.3441 162.791 68.9077C162.401 64.1948 159.81 59.863 156.187 56.8976C152.706 54.0486 148.203 52.3152 143.676 52.453C141.406 52.522 139.049 53.0984 137.283 54.5945C136.523 55.2379 135.934 56.0603 135.569 56.9877C135.205 57.9152 135.077 58.9186 135.197 59.9078C135.298 60.8332 135.666 61.7094 136.255 62.4305C136.975 63.2441 137.973 63.7595 139.053 63.8757C141.73 64.2242 144.051 62.7068 146.417 61.7315C147.021 61.477 147.645 61.2749 148.284 61.1273C148.705 61.0333 148.527 60.3872 148.106 60.4811Z" fill="#2F2E41"/>
<path d="M154.829 55.7452C153.868 52.1473 156.377 48.4027 159.785 47.2791C161.74 46.6702 163.838 46.6936 165.78 47.346C167.673 47.9865 169.373 49.0962 170.72 50.5716C173.708 53.7498 175.031 58.0393 175.651 62.2686C176.29 66.6353 175.929 71.4179 178.163 75.386C179.09 77.0312 180.465 78.4717 182.242 79.1801C183.899 79.841 185.885 79.8441 187.473 78.9851C187.855 78.7759 188.208 78.5179 188.524 78.2174C188.838 77.9208 188.364 77.4476 188.05 77.7436C186.72 78.9982 184.738 79.2349 183.029 78.7425C181.165 78.2055 179.73 76.7729 178.785 75.1232C177.692 73.2155 177.236 71.0349 176.988 68.8713C176.717 66.5095 176.612 64.1349 176.25 61.7827C175.598 57.5402 174.187 53.2815 171.194 50.0978C169.826 48.6109 168.119 47.4754 166.219 46.7873C164.262 46.0868 162.143 45.9798 160.126 46.4796C158.293 46.9545 156.676 48.0412 155.545 49.5599C154.446 51.0013 153.887 52.7826 153.965 54.5937C153.994 55.043 154.067 55.4884 154.183 55.9234C154.209 56.0063 154.266 56.0759 154.343 56.1175C154.419 56.1592 154.509 56.1695 154.592 56.1464C154.676 56.1233 154.748 56.0685 154.792 55.9937C154.836 55.9189 154.85 55.8298 154.829 55.7452L154.829 55.7452Z" fill="#2F2E41"/>
<path d="M23.2885 86.2104H3.79729C2.79053 86.2093 1.82534 85.8088 1.11345 85.0969C0.401567 84.3851 0.00113335 83.4199 0 82.4131V4.45696C0.00113335 3.4502 0.401567 2.48501 1.11345 1.77312C1.82534 1.06124 2.79053 0.660801 3.79729 0.659668H56.6647L66.3409 9.29922V25.007H65.8942V9.49926L56.4942 1.10641H3.79729C2.90898 1.10741 2.05733 1.46074 1.4292 2.08887C0.80107 2.717 0.447745 3.56865 0.44674 4.45696V82.4131C0.447745 83.3014 0.80107 84.1531 1.4292 84.7812C2.05733 85.4093 2.90898 85.7626 3.79729 85.7636H23.2885V86.2104Z" fill="#3F3D56"/>
<path d="M66.1176 9.59447H60.0866C59.0798 9.59334 58.1146 9.1929 57.4028 8.48102C56.6909 7.76914 56.2904 6.80394 56.2893 5.79718V0.883038C56.2893 0.823797 56.3128 0.766981 56.3547 0.725091C56.3966 0.683201 56.4534 0.659668 56.5127 0.659668C56.5719 0.659668 56.6287 0.683201 56.6706 0.725091C56.7125 0.766981 56.736 0.823797 56.736 0.883038V5.79718C56.7371 6.68549 57.0904 7.53713 57.7185 8.16527C58.3466 8.7934 59.1983 9.14673 60.0866 9.14773H66.1176C66.1768 9.14773 66.2336 9.17127 66.2755 9.21316C66.3174 9.25504 66.341 9.31186 66.341 9.3711C66.341 9.43034 66.3174 9.48716 66.2755 9.52905C66.2336 9.57094 66.1768 9.59447 66.1176 9.59447Z" fill="#3F3D56"/>
<path d="M58.6437 20.8746H7.7153C7.24137 20.8746 6.78685 21.0629 6.45173 21.398C6.11661 21.7331 5.92834 22.1877 5.92834 22.6616C5.92834 23.1355 6.11661 23.59 6.45173 23.9252C6.78685 24.2603 7.24137 24.4486 7.7153 24.4486H58.6437C59.1176 24.4486 59.5721 24.2603 59.9072 23.9252C60.2424 23.59 60.4306 23.1355 60.4306 22.6616C60.4306 22.1877 60.2424 21.7331 59.9072 21.398C59.5721 21.0629 59.1176 20.8746 58.6437 20.8746Z" fill="#E6E6E6"/>
<path d="M32.9561 13.2802H7.71531C7.24137 13.2802 6.78685 13.4684 6.45173 13.8035C6.11661 14.1387 5.92834 14.5932 5.92834 15.0671C5.92834 15.541 6.11661 15.9956 6.45173 16.3307C6.78685 16.6658 7.24137 16.8541 7.71531 16.8541H32.9561C33.4301 16.8541 33.8846 16.6658 34.2197 16.3307C34.5548 15.9956 34.7431 15.541 34.7431 15.0671C34.7431 14.5932 34.5548 14.1387 34.2197 13.8035C33.8846 13.4684 33.4301 13.2802 32.9561 13.2802Z" fill="#E6E6E6"/>
<path d="M7.71531 35.8405C7.24137 35.8405 6.78685 36.0287 6.45173 36.3638C6.11661 36.699 5.92834 37.1535 5.92834 37.6274C5.92834 38.1013 6.11661 38.5559 6.45173 38.891C6.78685 39.2261 7.24137 39.4144 7.71531 39.4144H23.6773V35.8405H7.71531Z" fill="#E6E6E6"/>
<path d="M7.71531 28.2458C7.48064 28.2458 7.24827 28.2921 7.03147 28.3819C6.81466 28.4717 6.61767 28.6033 6.45173 28.7692C6.2858 28.9352 6.15417 29.1322 6.06437 29.349C5.97457 29.5658 5.92834 29.7981 5.92834 30.0328C5.92834 30.2675 5.97457 30.4998 6.06437 30.7166C6.15417 30.9334 6.2858 31.1304 6.45173 31.2964C6.61767 31.4623 6.81466 31.5939 7.03147 31.6837C7.24827 31.7735 7.48064 31.8198 7.71531 31.8198H23.6773V28.2458H7.71531Z" fill="#E6E6E6"/>
<path d="M23.7889 73.7017H9.48431C8.50717 73.7006 7.57036 73.3119 6.87941 72.621C6.18847 71.93 5.79981 70.9932 5.79871 70.0161V51.253C5.79981 50.2758 6.18847 49.339 6.87942 48.6481C7.57036 47.9571 8.50717 47.5685 9.48431 47.5674H23.7889V73.7017Z" fill="#E6E6E6"/>
<path d="M46.8542 110.223H27.363C26.3562 110.221 25.391 109.821 24.6791 109.109C23.9672 108.397 23.5668 107.432 23.5657 106.425V28.4692C23.5668 27.4624 23.9672 26.4972 24.6791 25.7853C25.391 25.0734 26.3562 24.673 27.363 24.6719H80.2304L89.9066 33.3114V48.1257H89.4598V33.5115L80.0599 25.1186H27.363C26.4747 25.1196 25.623 25.4729 24.9949 26.1011C24.3667 26.7292 24.0134 27.5809 24.0124 28.4692V106.425C24.0134 107.314 24.3667 108.165 24.9949 108.793C25.623 109.422 26.4747 109.775 27.363 109.776H46.8542V110.223Z" fill="#3F3D56"/>
<path d="M89.683 33.6067H83.652C82.6453 33.6055 81.6801 33.2051 80.9682 32.4932C80.2563 31.7813 79.8559 30.8161 79.8547 29.8094V24.8952C79.8547 24.836 79.8783 24.7792 79.9202 24.7373C79.9621 24.6954 80.0189 24.6719 80.0781 24.6719C80.1373 24.6719 80.1942 24.6954 80.2361 24.7373C80.278 24.7792 80.3015 24.836 80.3015 24.8952V29.8094C80.3025 30.6977 80.6558 31.5493 81.2839 32.1775C81.9121 32.8056 82.7637 33.1589 83.652 33.1599H89.683C89.7423 33.1599 89.7991 33.1835 89.841 33.2254C89.8829 33.2673 89.9064 33.3241 89.9064 33.3833C89.9064 33.4425 89.8829 33.4994 89.841 33.5413C89.7991 33.5831 89.7423 33.6067 89.683 33.6067Z" fill="#3F3D56"/>
<path d="M82.2091 44.887H31.2807C30.8068 44.887 30.3523 45.0752 30.0172 45.4104C29.682 45.7455 29.4938 46.2 29.4938 46.6739C29.4938 47.1479 29.682 47.6024 30.0172 47.9375C30.3523 48.2726 30.8068 48.4609 31.2807 48.4609H82.2091C82.683 48.4609 83.1375 48.2726 83.4727 47.9375C83.8078 47.6024 83.9961 47.1479 83.9961 46.6739C83.9961 46.2 83.8078 45.7455 83.4727 45.4104C83.1375 45.0752 82.683 44.887 82.2091 44.887Z" fill="#E6E6E6"/>
<path d="M56.5215 37.2924H31.2807C30.8068 37.2924 30.3523 37.4806 30.0172 37.8158C29.682 38.1509 29.4938 38.6054 29.4938 39.0793C29.4938 39.5533 29.682 40.0078 30.0172 40.3429C30.3523 40.678 30.8068 40.8663 31.2807 40.8663H56.5215C56.9955 40.8663 57.45 40.678 57.7851 40.3429C58.1202 40.0078 58.3085 39.5533 58.3085 39.0793C58.3085 38.6054 58.1202 38.1509 57.7851 37.8158C57.45 37.4806 56.9955 37.2924 56.5215 37.2924Z" fill="#E6E6E6"/>
<path d="M82.2091 44.887H31.2807C30.8068 44.887 30.3523 45.0752 30.0172 45.4104C29.682 45.7455 29.4938 46.2 29.4938 46.6739C29.4938 47.1479 29.682 47.6024 30.0172 47.9375C30.3523 48.2726 30.8068 48.4609 31.2807 48.4609H82.2091C82.683 48.4609 83.1375 48.2726 83.4727 47.9375C83.8078 47.6024 83.9961 47.1479 83.9961 46.6739C83.9961 46.2 83.8078 45.7455 83.4727 45.4104C83.1375 45.0752 82.683 44.887 82.2091 44.887Z" fill="#E6E6E6"/>
<path d="M56.5215 37.2924H31.2807C30.8068 37.2924 30.3523 37.4806 30.0172 37.8158C29.682 38.1509 29.4938 38.6054 29.4938 39.0793C29.4938 39.5533 29.682 40.0078 30.0172 40.3429C30.3523 40.678 30.8068 40.8663 31.2807 40.8663H56.5215C56.9955 40.8663 57.45 40.678 57.7851 40.3429C58.1202 40.0078 58.3085 39.5533 58.3085 39.0793C58.3085 38.6054 58.1202 38.1509 57.7851 37.8158C57.45 37.4806 56.9955 37.2924 56.5215 37.2924Z" fill="#E6E6E6"/>
<path d="M31.2807 59.8528C30.8068 59.8528 30.3523 60.0411 30.0172 60.3762C29.682 60.7113 29.4938 61.1658 29.4938 61.6397C29.4938 62.1137 29.682 62.5682 30.0172 62.9033C30.3523 63.2384 30.8068 63.4267 31.2807 63.4267H47.2428V59.8528H31.2807Z" fill="#E6E6E6"/>
<path d="M31.2807 52.2582C30.8068 52.2582 30.3523 52.4465 30.0172 52.7816C29.682 53.1167 29.4938 53.5712 29.4938 54.0451C29.4938 54.5191 29.682 54.9736 30.0172 55.3087C30.3523 55.6438 30.8068 55.8321 31.2807 55.8321H47.2428V52.2582H31.2807Z" fill="#E6E6E6"/>
<path d="M31.2807 59.8528C30.8068 59.8528 30.3523 60.0411 30.0172 60.3762C29.682 60.7113 29.4938 61.1658 29.4938 61.6397C29.4938 62.1137 29.682 62.5682 30.0172 62.9033C30.3523 63.2384 30.8068 63.4267 31.2807 63.4267H47.2428V59.8528H31.2807Z" fill="#E6E6E6"/>
<path d="M31.2807 52.2582C30.8068 52.2582 30.3523 52.4465 30.0172 52.7816C29.682 53.1167 29.4938 53.5712 29.4938 54.0451C29.4938 54.5191 29.682 54.9736 30.0172 55.3087C30.3523 55.6438 30.8068 55.8321 31.2807 55.8321H47.2428V52.2582H31.2807Z" fill="#E6E6E6"/>
<path d="M47.3545 97.7139H33.0499C32.0727 97.7128 31.1359 97.3241 30.445 96.6332C29.754 95.9422 29.3654 95.0054 29.3643 94.0283V75.2652C29.3654 74.2881 29.754 73.3512 30.445 72.6603C31.1359 71.9694 32.0727 71.5807 33.0499 71.5796H47.3545V97.7139Z" fill="#E6E6E6"/>
<path d="M48.6143 48.9075C48.0591 49.2464 47.6003 49.7222 47.2819 50.2894C46.9636 50.8565 46.7962 51.496 46.796 52.1464V52.7048H47.2428V52.1464C47.2437 51.4077 47.4882 50.69 47.9385 50.1044C48.3888 49.5188 49.0197 49.0981 49.7333 48.9075H48.6143ZM103.461 48.3491H50.5933C49.5866 48.3503 48.6214 48.7507 47.9095 49.4626C47.1976 50.1745 46.7972 51.1397 46.796 52.1464V130.103C46.7975 131.109 47.198 132.074 47.9098 132.786C48.6216 133.498 49.5867 133.898 50.5933 133.9H109.34C110.346 133.898 111.311 133.498 112.023 132.786C112.735 132.074 113.135 131.109 113.137 130.103V56.9891L103.461 48.3491ZM112.69 130.103C112.689 130.991 112.336 131.842 111.708 132.471C111.08 133.099 110.228 133.452 109.34 133.453H50.5933C49.705 133.452 48.8534 133.099 48.2253 132.471C47.5972 131.842 47.2438 130.991 47.2428 130.103V52.1464C47.2437 51.4077 47.4882 50.69 47.9385 50.1044C48.3888 49.5188 49.0196 49.0981 49.7333 48.9075C50.0138 48.8328 50.303 48.7952 50.5933 48.7959H103.291L112.69 57.1879V130.103ZM48.6143 48.9075C48.0591 49.2464 47.6003 49.7222 47.2819 50.2894C46.9635 50.8565 46.7962 51.496 46.796 52.1464V52.7048H47.2428V52.1464C47.2437 51.4077 47.4882 50.69 47.9385 50.1044C48.3888 49.5188 49.0196 49.0981 49.7333 48.9075H48.6143Z" fill="#3F3D56"/>
<path d="M112.914 57.2839H106.883C105.876 57.2828 104.911 56.8824 104.199 56.1705C103.487 55.4586 103.086 54.4934 103.085 53.4866V48.5725C103.085 48.5132 103.109 48.4564 103.151 48.4145C103.193 48.3727 103.249 48.3491 103.309 48.3491C103.368 48.3491 103.425 48.3727 103.467 48.4145C103.509 48.4564 103.532 48.5132 103.532 48.5725V53.4866C103.533 54.3749 103.886 55.2266 104.515 55.8547C105.143 56.4829 105.994 56.8362 106.883 56.8372H112.914C112.973 56.8372 113.03 56.8607 113.072 56.9026C113.113 56.9445 113.137 57.0013 113.137 57.0606C113.137 57.1198 113.113 57.1766 113.072 57.2185C113.03 57.2604 112.973 57.2839 112.914 57.2839Z" fill="#3F3D56"/>
<path d="M105.44 72.1381H54.5116C54.0376 72.1381 53.5831 71.9499 53.248 71.6147C52.9129 71.2796 52.7246 70.8251 52.7246 70.3512C52.7246 69.8772 52.9129 69.4227 53.248 69.0876C53.5831 68.7525 54.0376 68.5642 54.5116 68.5642H105.44C105.914 68.5642 106.368 68.7525 106.704 69.0876C107.039 69.4227 107.227 69.8772 107.227 70.3512C107.227 70.8251 107.039 71.2796 106.704 71.6147C106.368 71.9499 105.914 72.1381 105.44 72.1381Z" fill="#CCCCCC"/>
<path d="M79.7524 64.5435H54.5116C54.0376 64.5435 53.5831 64.3553 53.248 64.0201C52.9129 63.685 52.7246 63.2305 52.7246 62.7566C52.7246 62.2826 52.9129 61.8281 53.248 61.493C53.5831 61.1579 54.0376 60.9696 54.5116 60.9696H79.7524C80.2263 60.9696 80.6808 61.1579 81.016 61.493C81.3511 61.8281 81.5393 62.2826 81.5393 62.7566C81.5393 63.2305 81.3511 63.685 81.016 64.0201C80.6808 64.3553 80.2263 64.5435 79.7524 64.5435Z" fill="#CCCCCC"/>
<path d="M105.44 87.1039H54.5116C54.0376 87.1039 53.5831 86.9157 53.248 86.5806C52.9129 86.2454 52.7246 85.7909 52.7246 85.317C52.7246 84.8431 52.9129 84.3885 53.248 84.0534C53.5831 83.7183 54.0376 83.53 54.5116 83.53H105.44C105.914 83.53 106.368 83.7183 106.704 84.0534C107.039 84.3885 107.227 84.8431 107.227 85.317C107.227 85.7909 107.039 86.2454 106.704 86.5806C106.368 86.9157 105.914 87.1039 105.44 87.1039Z" fill="#CCCCCC"/>
<path d="M79.7524 79.5093H54.5116C54.0376 79.5093 53.5831 79.3211 53.248 78.986C52.9129 78.6508 52.7246 78.1963 52.7246 77.7224C52.7246 77.2485 52.9129 76.7939 53.248 76.4588C53.5831 76.1237 54.0376 75.9354 54.5116 75.9354H79.7524C80.2263 75.9354 80.6808 76.1237 81.016 76.4588C81.3511 76.7939 81.5393 77.2485 81.5393 77.7224C81.5393 78.1963 81.3511 78.6508 81.016 78.986C80.6808 79.3211 80.2263 79.5093 79.7524 79.5093Z" fill="#CCCCCC"/>
<path d="M103.635 121.391H56.2801C55.3029 121.39 54.3661 121.001 53.6752 120.31C52.9842 119.619 52.5956 118.683 52.5945 117.706V98.9424C52.5956 97.9653 52.9842 97.0285 53.6752 96.3375C54.3661 95.6466 55.3029 95.2579 56.2801 95.2568H103.635C104.612 95.2579 105.548 95.6466 106.239 96.3375C106.93 97.0285 107.319 97.9653 107.32 98.9424V117.706C107.319 118.683 106.93 119.619 106.239 120.31C105.548 121.001 104.612 121.39 103.635 121.391Z" fill="#949494"/>
</g>
<defs>
<filter id="filter0_f_26_281" x="19" y="-5" width="166" height="164" filterUnits="userSpaceOnUse" color-interpolation-filters="sRGB">
<feFlood flood-opacity="0" result="BackgroundImageFix"/>
<feBlend mode="normal" in="SourceGraphic" in2="BackgroundImageFix" result="shape"/>
<feGaussianBlur stdDeviation="20" result="effect1_foregroundBlur_26_281"/>
</filter>
<linearGradient id="paint0_linear_26_281" x1="43" y1="0" x2="43" y2="84" gradientUnits="userSpaceOnUse">
<stop offset="0.0343749" stop-color="#CB356B" stop-opacity="0.1"/>
<stop offset="0.622917" stop-color="#CB356B"/>
<stop offset="1" stop-color="#CB356B" stop-opacity="0.1"/>
</linearGradient>
<clipPath id="clip0_26_281">
<rect width="188.627" height="145.596" fill="white" transform="translate(0 0.659668)"/>
</clipPath>
</defs>
</svg>
